<svg width="16" height="15" viewBox="0 0 16 15" fill="none" xmlns="http://www.w3.org/2000/svg">
<path d="M12.1833 1.82364L10.6833 1.03648C9.36656 0.345492 8.7082 0 8 0C7.2918 0 6.63344 0.345491 5.31672 1.03647L3.81672 1.82364C2.48641 2.52175 1.70443 2.93212 1.21977 3.48099L8 6.87111L14.7802 3.48099C14.2956 2.93212 13.5136 2.52175 12.1833 1.82364Z" fill="#76B72A"/>
<path d="M15.3113 4.47326L8.5625 7.84764V14.928C9.10094 14.7939 9.71357 14.4724 10.6833 13.9635L12.1833 13.1764C13.797 12.3295 14.6039 11.9061 15.052 11.1452C15.5 10.3843 15.5 9.4375 15.5 7.54387V7.45613C15.5 6.03664 15.5 5.14918 15.3113 4.47326Z" fill="#76B72A"/>
<path d="M7.4375 14.928V7.84764L0.688729 4.47326C0.5 5.14918 0.5 6.03664 0.5 7.45613V7.54387C0.5 9.4375 0.5 10.3843 0.948048 11.1452C1.3961 11.9061 2.20297 12.3295 3.81672 13.1764L5.31672 13.9635C6.28643 14.4724 6.89906 14.7939 7.4375 14.928Z" fill="#76B72A"/>
</svg>
