<svg width="50" height="50" viewBox="0 0 50 50" fill="none" xmlns="http://www.w3.org/2000/svg">
<path opacity="0.5" fill-rule="evenodd" clip-rule="evenodd" d="M25.8912 4.16675C23.5707 4.16675 21.4574 5.41822 17.2309 7.92115L15.8014 8.7677C11.5749 11.2706 9.46168 12.5221 8.30143 14.5834C7.14117 16.6447 7.14117 19.1477 7.14117 24.1535V25.8466C7.14117 30.8525 7.14117 33.3554 8.30143 35.4167C9.46168 37.4781 11.5749 38.7295 15.8014 41.2325L17.2309 42.079C21.4574 44.5819 23.5707 45.8334 25.8912 45.8334C28.2117 45.8334 30.3249 44.582 34.5514 42.079L35.9809 41.2325C40.2074 38.7295 42.3207 37.4781 43.4809 35.4167C44.6412 33.3554 44.6412 30.8525 44.6412 25.8466V24.1535C44.6412 19.1477 44.6412 16.6447 43.4809 14.5834C42.3207 12.5221 40.2074 11.2706 35.9809 8.7677L34.5514 7.92115C30.3249 5.41822 28.2117 4.16675 25.8912 4.16675Z" fill="#FD9800"/>
<path d="M25.8912 17.1875C21.5764 17.1875 18.0787 20.6853 18.0787 25C18.0787 29.3147 21.5764 32.8125 25.8912 32.8125C30.2059 32.8125 33.7037 29.3147 33.7037 25C33.7037 20.6853 30.2059 17.1875 25.8912 17.1875Z" fill="#FD9800"/>
</svg>
