<svg width="1188" height="650" viewBox="0 0 1188 650" fill="none" xmlns="http://www.w3.org/2000/svg">
<path opacity="0.5" d="M277.628 339.69C221.96 331.654 170.454 339.236 126.517 364.604C-54.0174 468.835 -38.4098 833.854 161.378 1179.9C361.165 1525.94 669.477 1721.97 850.012 1617.73C993.496 1534.89 1013.08 1287.32 914.781 1015.47C920.821 1012.53 926.783 1009.37 932.661 1005.97C1024.95 952.692 1078.65 853.207 1090.4 736.293C1113.44 728.461 1136.04 718.275 1157.91 705.65C1338.45 601.418 1400.21 370.407 1295.86 189.671C1191.51 8.93562 960.57 -53.083 780.035 51.1487C750.592 68.1477 724.308 88.5185 701.388 111.494C605.58 77.9342 507.532 80.7708 425.754 127.985C349.157 172.209 299.14 248.261 277.628 339.69Z" fill="#55A0E7"/>
</svg>
