<svg width="1391" height="789" viewBox="0 0 1391 789" fill="none" xmlns="http://www.w3.org/2000/svg">
<path opacity="0.3" fill-rule="evenodd" clip-rule="evenodd" d="M8.41841 1576.44C-27.9481 1429.23 84.2227 1252 134.836 1082.4C186.759 908.407 105.85 681.357 308.304 571.539C541.644 444.968 707.896 741.571 950.358 640.033C1258.68 510.911 1378.45 -0.774548 1671.38 0.708185C1933.65 2.03572 1664.85 418.791 1624.41 643.444C1604.25 755.442 1523.01 865.238 1495.42 978.358C1464.65 1104.48 1511.58 1211.3 1454.74 1338.95C1352.64 1568.24 1306.1 1856.3 1040.62 1999.78C790.371 2135.02 541.929 2018.31 346.212 1938.04C172.654 1866.86 49.2807 1741.85 8.41841 1576.44Z" stroke="white" stroke-dasharray="6 6"/>
</svg>
