<svg width="18" height="19" viewBox="0 0 18 19" fill="none" xmlns="http://www.w3.org/2000/svg">
<path d="M16.5 9.5C16.5 13.6421 13.1421 17 9 17C4.85786 17 1.5 13.6421 1.5 9.5C1.5 5.35786 4.85786 2 9 2C13.1421 2 16.5 5.35786 16.5 9.5Z" fill="#3262AC"/>
<path fill-rule="evenodd" clip-rule="evenodd" d="M9 5.9375C9.31066 5.9375 9.5625 6.18934 9.5625 6.5V9.267L11.2727 10.9773C11.4924 11.1969 11.4924 11.5531 11.2727 11.7727C11.0531 11.9924 10.6969 11.9924 10.4773 11.7727L8.60225 9.89775C8.49676 9.79226 8.4375 9.64918 8.4375 9.5V6.5C8.4375 6.18934 8.68934 5.9375 9 5.9375Z" fill="white"/>
</svg>
