<svg width="18" height="19" viewBox="0 0 18 19" fill="none" xmlns="http://www.w3.org/2000/svg">
<path fill-rule="evenodd" clip-rule="evenodd" d="M8.4375 2C8.4375 1.68934 8.68934 1.4375 9 1.4375C13.4528 1.4375 17.0625 5.0472 17.0625 9.5C17.0625 13.9528 13.4528 17.5625 9 17.5625C4.5472 17.5625 0.9375 13.9528 0.9375 9.5C0.9375 9.18934 1.18934 8.9375 1.5 8.9375C1.81066 8.9375 2.0625 9.18934 2.0625 9.5C2.0625 13.3315 5.16852 16.4375 9 16.4375C12.8315 16.4375 15.9375 13.3315 15.9375 9.5C15.9375 5.66852 12.8315 2.5625 9 2.5625C8.68934 2.5625 8.4375 2.31066 8.4375 2ZM9 6.6875C9.31066 6.6875 9.5625 6.93934 9.5625 7.25V9.6875H12C12.3107 9.6875 12.5625 9.93934 12.5625 10.25C12.5625 10.5607 12.3107 10.8125 12 10.8125H9C8.68934 10.8125 8.4375 10.5607 8.4375 10.25V7.25C8.4375 6.93934 8.68934 6.6875 9 6.6875Z" fill="#76B72A"/>
<path fill-rule="evenodd" clip-rule="evenodd" d="M6.82468 2.29815C6.93656 2.58797 6.79231 2.91361 6.50249 3.02548C6.39642 3.06643 6.29159 3.10991 6.1881 3.15586C5.90416 3.28191 5.5718 3.15392 5.44575 2.86998C5.3197 2.58604 5.44769 2.25368 5.73163 2.12763C5.85201 2.07419 5.97394 2.0236 6.09735 1.97596C6.38717 1.86409 6.71281 2.00834 6.82468 2.29815ZM4.23578 3.6802C4.45002 3.90516 4.44134 4.26121 4.21637 4.47546C4.13412 4.55379 4.05379 4.63412 3.97546 4.71638C3.76121 4.94134 3.40516 4.95002 3.1802 4.73578C2.95524 4.52153 2.94655 4.16548 3.1608 3.94052C3.25175 3.84502 3.34502 3.75175 3.44052 3.6608C3.66548 3.44655 4.02153 3.45524 4.23578 3.6802ZM2.36998 5.94575C2.65392 6.0718 2.78191 6.40416 2.65586 6.6881C2.60991 6.79159 2.56643 6.89642 2.52548 7.00249C2.41361 7.29231 2.08797 7.43656 1.79815 7.32468C1.50834 7.21281 1.36409 6.88717 1.47596 6.59735C1.5236 6.47394 1.57419 6.35201 1.62763 6.23163C1.75368 5.94769 2.08604 5.8197 2.36998 5.94575Z" fill="#76B72A"/>
</svg>
