<svg width="36" height="36" viewBox="0 0 36 36" fill="none" xmlns="http://www.w3.org/2000/svg">
<rect width="36" height="36" rx="18" fill="#33AADE"/>
<path fill-rule="evenodd" clip-rule="evenodd" d="M10.2864 16.8726C14.6953 14.8727 17.6304 13.5438 19.1042 12.899C23.2989 11.0701 24.1807 10.7544 24.7476 10.7412C24.8735 10.7412 25.1507 10.7675 25.3396 10.9254C25.4908 11.057 25.5286 11.228 25.5537 11.3596C25.5789 11.4912 25.6041 11.7675 25.5789 11.978C25.3522 14.4779 24.3696 20.5435 23.8658 23.3329C23.6516 24.5171 23.2359 24.9118 22.8328 24.9513C21.9511 25.0302 21.2834 24.346 20.4394 23.7671C19.1042 22.8592 18.361 22.2935 17.0635 21.3988C15.5645 20.3725 16.5344 19.8067 17.391 18.8857C17.6178 18.6489 21.485 14.9648 21.5606 14.6358C21.5732 14.5964 21.5732 14.4385 21.485 14.3595C21.3968 14.2806 21.2708 14.3069 21.1701 14.3332C21.0315 14.3595 18.9152 15.8332 14.7961 18.741C14.1914 19.1752 13.6498 19.3857 13.1585 19.3725C12.6168 19.3594 11.5839 19.0567 10.8029 18.7936C9.85812 18.4778 9.10231 18.3068 9.16529 17.7541C9.20308 17.4647 9.58099 17.1752 10.2864 16.8726Z" fill="white"/>
</svg>
