<svg width="1038" height="664" viewBox="0 0 1038 664" fill="none" xmlns="http://www.w3.org/2000/svg">
<mask id="mask0_0_402" style="mask-type:alpha" maskUnits="userSpaceOnUse" x="0" y="0" width="1038" height="664">
<rect width="1038" height="664" rx="60" fill="white"/>
</mask>
<g mask="url(#mask0_0_402)">
<path fill-rule="evenodd" clip-rule="evenodd" d="M521.992 287.999L518.485 295.199L499.172 305.461L505.991 317.3L506.026 317.356L509.952 326.501L525.033 328.355L525.498 328.41L525.816 328.62L538.994 337.016L561.875 340.603L573.842 335.523L574.884 335.078L575.748 335.71L589.974 346.273L601.079 349.773L602.117 350.109L601.79 350.735L596.171 361.382L605.796 372.513L611.672 372.82L627.771 364.656L625.035 355.513L624.923 355.145L625.322 354.877L634.412 348.86L633.738 342.43L630.916 333.664L630.777 333.232L631.319 332.957L647.192 324.962L642.262 307.027L642.188 306.708L642.497 306.459L650.796 299.759L647.023 294.054L646.705 293.578L653.581 289.608L655.416 285.396L645.777 279.164L640.004 280.408L639.324 280.558L638.7 280.292L633.874 278.263L633.205 277.984L633.271 277.528L633.681 274.024L629.321 271.507L616.974 270.928L605.984 277.273L605.54 277.306L596.463 277.992L597.461 281.324L597.577 281.689L597.17 281.952L592.299 285.173L591.323 285.807L590.259 285.144L583.165 280.701L575.436 281.725L567.621 288.682L566.896 288.673L521.992 287.999Z" fill="white" fill-opacity="0.2"/>
<path fill-rule="evenodd" clip-rule="evenodd" d="M588.7 209.074L571.92 209.81L562.628 210.838L556.69 216.123L561.214 222.805L548.565 228.872L556.884 247.624L535.277 260.715L522.754 286.436L566.068 287.079L573.383 280.563L573.66 280.322L574.166 280.253L583.197 279.052L583.988 278.947L584.561 279.309L591.157 283.446L594.67 281.133L593.537 277.394L593.315 276.625L594.631 276.525L604.58 275.773L615.011 269.751L614.43 253.01L602.665 242.892L602.518 242.763L602.45 242.612L598.552 232.824L598.441 232.542L598.666 232.293L604.314 226.026L599.854 222.494L591.822 221.062L590.897 220.898L590.786 220.345L588.7 209.074Z" fill="white" fill-opacity="0.2"/>
<path fill-rule="evenodd" clip-rule="evenodd" d="M651.636 188.928L639.162 185.872L626.817 188.041L618.852 185.193L608.253 190.69L612.348 198.873L591.313 208.447L593.403 219.725L600.969 221.07L601.436 221.156L601.727 221.387L607.004 225.564L607.524 225.976L607.138 226.407L601.333 232.855L605.051 242.205L616.908 252.394L617.142 252.601L617.148 252.844L617.725 269.393L629.913 269.964L630.444 269.99L636.503 273.488L636.464 273.862L636.054 277.289L639.584 278.775L644.85 277.644L646.624 268.993L646.663 268.762L646.912 268.589L654.454 263.5L649.551 258.248L649.251 257.932L649.44 257.609L651.592 253.959L651.699 253.793L658.763 249.715L659.484 245.523L659.537 245.255L674.556 236.584L679.845 206.411L651.636 188.928Z" fill="white" fill-opacity="0.2"/>
<path fill-rule="evenodd" clip-rule="evenodd" d="M752.136 169.315L738.508 160.13L737.336 148.412L747.468 143.798L739.285 136.75L719.781 141.181L681.203 138.663L671.736 145.99L683.507 152.206L685.555 160.939L674.685 170.937L685.357 175.936L694.618 183.606L687.573 187.674L656.265 189.563L681.899 205.457L737.703 211.449L739.105 207.62L739.185 207.398L744.845 204.13L745.415 204.143L753.049 204.281L753.213 204.29L753.39 204.317L762.12 205.768L765.655 202.987L759.418 198.866L753.094 198.314L752.174 198.228L751.907 197.717L749.162 192.473L749.046 192.25L749.153 192.027L752.09 186.105L752.169 185.946L752.377 185.816L758.158 182.146L758.42 181.99L758.803 181.935L767.782 180.703L752.891 170.998L752.614 170.82L752.542 170.587L752.136 169.315Z" fill="white" fill-opacity="0.2"/>
<path fill-rule="evenodd" clip-rule="evenodd" d="M884.057 147.075L877.609 148.014L850.328 143.306L827.608 145.884L799.326 151.057L783.16 159.155L776.776 165.936L761.745 166.555L755.086 169.896L755.172 170.164L771.067 180.52L780.697 182.834L780.971 182.899L781.198 183.03L794.327 190.912L807.975 191.471L808.561 191.494L808.954 191.747L818.276 197.739L818.949 198.167L818.506 198.646L809.294 208.755L815.004 209.709L815.478 209.787L815.777 210.013L822.045 214.852L822.399 215.132L822.314 215.461L821.098 220.333L842.03 230.374L860.382 232.995L890.149 230.469L894.761 228.372L896.008 217.566L896.036 217.341L896.257 217.166L904.03 211.164L886.094 196.682L885.906 196.529L885.844 196.342L882.56 186.218L882.498 186.031L882.58 185.865L893.063 163.886L893.081 163.847L893.099 163.817L898.457 155.691L896.375 152.116L886.005 148.467L885.745 148.375L885.583 148.25L884.057 147.075Z" fill="white" fill-opacity="0.2"/>
<path fill-rule="evenodd" clip-rule="evenodd" d="M682.494 207.106L677.223 237.112L677.171 237.38L662.155 246.049L661.426 250.236L661.377 250.506L654.085 254.716L652.217 257.893L657.186 263.202L667.526 269.745L676.446 268.471L676.707 268.434L676.955 268.457L713.072 271.298L730.978 263.426L729.662 253.9L729.646 253.743L729.729 253.591L734.468 245.655L734.57 245.482L734.79 245.364L751.382 236.417L737.77 213.043L682.494 207.106Z" fill="white" fill-opacity="0.2"/>
<path fill-rule="evenodd" clip-rule="evenodd" d="M712.089 272.8L677.035 270.043L667.55 271.392L666.744 271.51L666.166 271.141L656.198 264.839L649.286 269.503L647.548 278.014L657.922 284.729L658.441 285.06L658.258 285.475L656.162 290.289L656.078 290.494L649.897 294.063L653.614 299.681L653.882 300.077L653.463 300.409L645.065 307.195L649.867 324.766L662.128 327.566L669.369 326.007L676.06 320.596L678.485 316.337L678.699 315.957L679.378 315.86L689.112 314.467L689.539 314.41L689.95 314.505L711.547 319.422L727.969 320.181L737.433 315.021L741.496 310.239L739.462 302.257L739.414 302.038L739.559 301.841L743.542 296.545L736.7 291.776L719.664 287.92L719.317 287.836L719.064 287.663L711.415 282.33L711.046 282.073L711.076 281.747L712.089 272.8Z" fill="white" fill-opacity="0.2"/>
<path fill-rule="evenodd" clip-rule="evenodd" d="M730.967 320.767L729.472 321.582L729.067 321.807L728.488 321.78L711.281 320.991L711.069 320.98L710.868 320.935L689.488 316.063L680.867 317.293L678.594 321.274L678.54 321.372L678.418 321.471L671.38 327.163L671.163 327.336L670.801 327.416L662.738 329.151L662.25 329.256L661.75 329.141L648.99 326.227L633.74 333.905L636.432 342.276L636.442 342.304L636.454 342.373L637.149 349.19L637.186 349.501L636.844 349.726L627.82 355.705L630.485 364.576L645.831 370.956L684.987 378.824L692.641 378.252L713.481 366.543L713.555 366.501L713.629 366.468L730.16 359.854L730.456 359.74L730.817 359.726L755.203 358.978L755.561 348.068L746.805 346.793L746.616 346.764L746.45 346.713L740.34 344.712L739.825 344.535L739.651 344.208L736.295 337.698L736.183 337.482L736.279 337.27L740.94 327.09L730.967 320.767Z" fill="white" fill-opacity="0.2"/>
<path fill-rule="evenodd" clip-rule="evenodd" d="M753.385 237.567L736.955 246.43L732.424 254.032L733.774 263.809L733.825 264.221L733.273 264.459L714.858 272.559L713.84 281.633L720.872 286.534L737.901 290.39L738.247 290.469L738.504 290.644L745.308 295.387L750.137 293.398L750.413 293.286L750.73 293.259L762.941 292.388L763.013 292.385L763.096 292.384L784.627 292.325L791.776 288.198L792.338 288.211L804.777 288.437L815.762 280.586L812.525 273.512L812.417 273.285L812.533 273.071L815.739 267.336L798.63 258.318L790.267 258.606L789.091 258.643L788.775 257.98L782.658 245.077L779.841 242.101L753.385 237.567Z" fill="white" fill-opacity="0.2"/>
<path fill-rule="evenodd" clip-rule="evenodd" d="M784.808 293.905L763.385 293.964L751.555 294.814L746.26 296.988L742.224 302.348L744.271 310.346L744.332 310.586L744.152 310.794L739.809 315.904L739.704 316.021L739.545 316.108L732.917 319.721L743.452 326.404L743.992 326.743L743.792 327.162L739.031 337.556L742.115 343.521L747.527 345.292L757.219 346.707L758.362 346.873L758.336 347.539L757.934 359.599L762.591 364.865L769.04 368.313L806.803 370.256L806.871 370.26L806.967 370.271L825.109 372.391L829.018 367.195L835.562 358.578L847.766 327.205L835.403 319.502L827.218 319.056L826.156 318.999L825.92 318.404L824.018 313.647L824.017 313.629L822.297 308.842L817.856 308.505L817.552 308.476L817.28 308.381L806.164 304.399L805.75 304.253L805.568 303.993L802.655 299.867L796.2 299.613L795.693 299.588L795.32 299.39L784.808 293.905Z" fill="white" fill-opacity="0.2"/>
<path fill-rule="evenodd" clip-rule="evenodd" d="M817.734 266.315L824.368 266.014L835.855 265.014L851.38 256.052L847.69 249.358L847.588 249.17L847.649 248.969L850.445 240.526L850.508 240.362L850.668 240.232L858.077 234.273L841.201 231.864L840.884 231.819L840.618 231.692L818.778 221.216L818.152 220.913L818.267 220.462L819.513 215.474L813.905 211.141L806.967 209.985L805.255 209.705L806.046 208.826L815.622 198.331L807.361 193.023L793.745 192.464L793.19 192.442L792.795 192.205L779.493 184.223L770.246 182.006L759.988 183.416L754.651 186.792L751.908 192.331L754.26 196.828L760.184 197.345L760.716 197.389L761.072 197.631L768.42 202.482L769.176 202.981L768.531 203.477L763.837 207.161L763.319 207.578L762.419 207.428L752.978 205.865L746.069 205.736L741.707 208.254L740.205 212.355L754.006 236.052L781.045 240.692L781.628 240.788L781.924 241.101L785.117 244.462L785.189 244.54L785.23 244.644L791.09 256.989L798.901 256.725L799.5 256.702L799.956 256.947L817.734 266.315Z" fill="white" fill-opacity="0.2"/>
<path fill-rule="evenodd" clip-rule="evenodd" d="M861.229 234.54L853.088 241.083L850.414 249.156L854.242 256.116L854.502 256.569L837.292 266.504L836.868 266.54L824.946 267.577L824.846 267.578L818.363 267.873L815.281 273.422L818.587 280.655L818.763 281.033L818.346 281.327L806.557 289.761L806.159 290.043L805.521 290.031L792.99 289.8L787.245 293.117L796.707 298.05L803.572 298.327L804.493 298.36L804.836 298.856L807.905 303.219L818.335 306.952L823.512 307.349L824.543 307.424L824.759 308.016L826.687 313.381L828.348 317.541L836.045 317.96L836.592 317.986L836.98 318.228L849.694 326.15L861.793 324.916L874.26 321.646L873.834 318.222L873.822 318.148L873.826 318.093L875.042 310.567L875.067 310.434L875.167 310.305L884.108 299.625L884.298 299.397L884.686 299.292L897.822 295.602L898.073 295.533L898.343 295.524L921.201 295.008L921.297 295.009L921.361 295.011L934.017 295.549L942.719 292.287L943.662 281.737L922.761 269.969L922.457 269.798L922.356 269.566L913.278 248.48L913.09 248.024L913.666 247.734L922.282 243.358L920.849 241.066L916.374 240.985L915.928 240.976L915.545 240.808L893.508 231.016L891.66 231.855L891.392 231.976L891.06 232.007L861.229 234.54Z" fill="white" fill-opacity="0.2"/>
<path fill-rule="evenodd" clip-rule="evenodd" d="M931.583 297.03L921.381 296.595L898.901 297.102L886.399 300.611L877.75 310.946L876.567 318.282L877.054 322.152L877.114 322.667L876.314 322.882L862.898 326.406L862.738 326.451L862.587 326.462L850.409 327.708L838.497 358.324L860.875 361.96L861.225 362.019L861.491 362.164L880.249 372.334L911.544 377.351L918.34 368.603L922.281 343.729L916.571 335.847L916.455 335.686L916.453 335.521L916.575 326.869L916.583 326.214L917.705 326.141L929.976 325.354L940.87 321.714L940.583 316.633L923.164 315.344L921.885 315.251L921.88 314.513L921.878 303.773L921.878 303.493L922.189 303.285L931.583 297.03Z" fill="white" fill-opacity="0.4"/>
<path fill-rule="evenodd" clip-rule="evenodd" d="M943.549 320.738L943.635 322.217L943.664 322.661L943.004 322.881L931.234 326.816L930.996 326.888L930.722 326.908L919.296 327.644L919.192 335.478L924.924 343.39L925.065 343.579L925.025 343.778L921.042 368.976L921.014 369.111L920.932 369.22L914.073 378.042L921.737 381.073L932.746 380.127L933.392 380.072L933.904 380.332L946.761 386.757L947.223 386.989L947.259 387.339L947.818 392.434L959.362 394.446L986.001 381.589L980.273 371.248L980.038 370.818L980.53 370.501L990.002 364.344L989.144 358.529L977.666 355.059L977.135 354.9L976.946 354.572L962.477 329.603L943.549 320.738Z" fill="white" fill-opacity="0.2"/>
<path fill-rule="evenodd" clip-rule="evenodd" d="M970.726 338.929L979.364 353.83L991.02 357.354L991.749 357.574L991.818 358.033L992.783 364.627L992.833 364.954L992.469 365.194L983.116 371.267L988.888 381.692L989.162 382.189L988.507 382.505L961.76 395.411L997.001 416.081L1004.1 417.029L1004.52 417.083L1004.83 417.27L1016.22 424.185L1016.9 424.593L1016.53 425.075L1011.2 431.888L1016.77 439.572L1016.88 439.719L1016.88 439.869L1017.25 448.957L1042.91 449.296L1043.5 449.305L1043.92 449.554L1075.22 468.278L1094.63 457.747L1094.99 457.554L1095.5 457.545L1107.99 457.465L1107.55 449.658L1086.81 442.229L1086.32 442.059L1086.16 441.741L1074.7 419.023L1074.6 418.807L1074.69 418.6L1085.82 394.431L1075.84 373.519L1042.19 352.12L1022.13 349.718L1021.74 349.676L1021.43 349.517L1007.14 341.907L997.102 343.016L996.797 343.049L996.48 343L970.726 338.929Z" fill="white" fill-opacity="0.2"/>
<path fill-rule="evenodd" clip-rule="evenodd" d="M945.471 292.26L967.103 297.309L971.685 292.247L971.823 292.086L972.084 291.988L1000.87 280.763L1001.86 280.381L1002.7 280.925L1014.96 288.989L1046.76 289.831L1062.58 278.184L1046.24 268.861L1045.15 269.367L1044.91 267.825L1041.96 248.849L1030.62 243.011L1030.21 242.799L1030.14 242.494L1027.15 229.414L1027.09 229.154L1027.32 228.926L1033.89 222.506L1030.71 213.313L1024.68 212.748L1014.86 216.552L1013.86 216.945L1013.03 216.382L991.309 201.647L991.007 201.446L990.968 201.178L989.552 192.85L972.152 176.278L972.013 176.144L971.961 175.999L968.056 164.225L968.037 164.174L968.033 164.101L967.656 156.911L955.591 156.686L937.687 162.81L937.484 162.88L937.258 162.905L920.559 164.667L919.994 164.728L919.505 164.535L900.594 156.966L895.677 164.439L885.294 186.204L888.462 195.962L906.815 210.782L907.419 211.269L906.835 211.716L898.699 217.994L897.442 228.911L897.405 229.245L896.974 229.442L895.658 230.04L916.743 239.408L921.74 239.501L922.724 239.521L923.069 240.068L925.154 243.409L925.473 243.909L924.819 244.243L916.121 248.652L924.91 269.05L945.976 280.913L946.456 281.182L946.421 281.554L945.471 292.26Z" fill="white" fill-opacity="0.2"/>
<path fill-rule="evenodd" clip-rule="evenodd" d="M1041.4 350.441L1040.05 336.24L1040 335.77L1040.7 335.551L1062.78 328.581L1064.23 316.611L1055.43 312.013L1055.1 311.832L1055 311.586L1046.4 291.398L1014.41 290.555L1013.79 290.536L1013.38 290.265L1001.53 282.473L973.986 293.206L969.015 298.702L968.479 299.296L967.353 299.029L944.289 293.648L935.392 296.976L924.624 304.161L924.621 313.869L942.019 315.165L943.259 315.257L943.298 315.97L943.443 318.711L964.476 328.561L964.823 328.721L964.948 328.953L969.709 337.156L996.735 341.431L1007.16 340.281L1007.86 340.207L1008.39 340.49L1022.92 348.224L1041.4 350.441Z" fill="white" fill-opacity="0.2"/>
<path fill-rule="evenodd" clip-rule="evenodd" d="M656.981 544.447L644.984 550.713L636.822 562.857L645.848 566.327L655.754 566.806L661.995 576.223L654.404 579.984L644.643 581.9L644.377 586.395L651.591 594.624L641.791 605.239L628.466 617.889L612.559 621.498L608.334 629.512L627.722 632.58L631.586 636.546L627.798 643.073L617.385 652.181L619.9 660.022L635.616 662.118L644.234 667.681L654.368 681.661L646.283 685.707L644 691.365L651.072 697.202L665.101 697.158L665.566 705.57L669.702 714.342L653.457 721.236L647.553 727.129L647.153 738.514L652.681 744.616L665.276 746.648L669.705 751.533L665.471 759.556L679.29 774.51L693.92 775.98L714.088 774.257L730.068 747.495L729.574 746.208L729.492 745.947L729.681 745.704L736.101 737.91L737.061 737.997L751.357 739.265L758.951 737.184L763.158 730.049L747.982 714.236L735.625 709.934L719.159 713.513L718.243 713.705L717.58 713.247L705.896 705.157L705.573 704.931L705.561 704.648L704.826 691.557L687.823 676.385L687.463 676.07L687.647 675.722L691.468 668.089L691.733 667.565L692.688 667.569L709.589 667.562L709.531 661.474L709.52 661.129L709.938 660.911L715.537 658.04L716.238 657.683L717.097 657.966L727.054 661.212L740.286 654.532L728.632 648.405L719.826 647.235L717.624 646.939L718.95 645.955L731.755 636.393L732.389 635.917L733.371 636.186L740.252 638.03L749.527 633.332L749.763 627.368L749.778 627.052L750.16 626.845L771.315 615.349L773.203 607.241L773.272 606.987L800.97 590.997L807.26 580.594L807.417 580.347L807.796 580.218L821.48 575.438L821.914 566.246L820.309 566.797L820.243 566.821L803.84 571.67L803.73 571.705L803.596 571.73L795.052 573.111L794.669 573.175L794.259 573.103L759.464 566.849L743.907 569.243L743.378 569.325L742.88 569.167L722.582 562.773L722.484 562.739L722.399 562.703L713.256 558.716L684.099 556.986L683.648 556.961L683.296 556.785L658.365 544.356L656.981 544.447Z" fill="white" fill-opacity="0.2"/>
<path fill-rule="evenodd" clip-rule="evenodd" d="M552.943 474.23L554.042 485.429L542.904 490.615L532.167 493.722L527.993 502.941L544.845 506.856L561.83 503.865L575.851 503.834L589.476 515.186L605.652 516.386L612.598 519.808L613.898 524.637L631.549 533.665L646.92 539.048L656.939 542.846L658.07 542.773L665.19 538.995L670.075 535.158L672.966 524.063L673.042 523.782L673.402 523.602L688.081 516.52L689.745 504.836L689.771 504.665L689.906 504.52L698.931 495.412L698.983 495.353L699.064 495.301L705.657 490.831L700.389 485.025L700.325 484.948L700.294 484.894L689.067 465.096L688.811 464.65L689.342 464.329L700.684 457.449L682.038 442.508L681.896 442.386L681.813 442.254L671.11 421.084L670.89 420.641L678.676 416.147L680.787 411.11L670.422 403.84L669.979 403.535L670.102 403.17L678.123 379.079L644.876 372.396L644.675 372.361L644.508 372.286L629.406 366.008L613.152 374.242L612.738 374.453L612.175 374.417L605.577 374.085L594.474 381.691L592.952 390.353L601.042 397.312L601.272 397.507L601.285 397.737L602.93 417.725L602.968 418.054L589.866 425.618L589.333 425.627L572.811 425.919L564.313 430.279L570.347 434.261L580.816 436.841L582.696 437.298L581.373 438.124L568.284 446.302L566.675 452.483L575.284 459.741L575.911 460.282L575.187 460.723L552.943 474.23Z" fill="white" fill-opacity="0.2"/>
<path fill-rule="evenodd" clip-rule="evenodd" d="M707.747 491.948L701.26 496.329L692.444 505.241L690.763 517.062L690.706 517.385L690.322 517.569L675.606 524.683L672.733 535.691L672.684 535.876L672.501 536.015L667.364 540.044L667.303 540.094L667.195 540.147L660.789 543.55L684.659 555.452L713.765 557.179L714.168 557.198L714.502 557.337L723.865 561.43L743.58 567.637L758.983 565.265L759.362 565.204L759.736 565.273L794.527 571.529L802.562 570.229L818.816 565.418L825.881 562.992L829.922 547.534L829.125 542.386L820.583 541.305L820.306 541.27L820.07 541.183L814.596 539.011L813.827 538.718L813.962 538.209L817.174 525.669L812.419 525.185L789.304 525.1L789.113 525.101L788.924 525.068L778.418 523.326L777.868 523.235L777.561 522.947L770.969 516.813L770.789 516.651L770.758 516.455L768.497 502.545L765.721 493.877L756.674 489.607L741.3 482.669L728.633 483.708L725.233 485.396L727.535 489.062L727.893 489.621L727.078 489.939L717.173 493.886L716.585 494.121L715.879 493.949L707.747 491.948Z" fill="white" fill-opacity="0.2"/>
<path fill-rule="evenodd" clip-rule="evenodd" d="M703.075 458.367L691.906 465.138L702.854 484.437L708.253 490.381L716.119 492.322L724.623 488.937L722.356 485.33L722.041 484.824L722.712 484.494L727.053 482.339L727.332 482.197L727.712 482.167L741.342 481.047L741.933 481L742.423 481.221L758.291 488.391L758.327 488.399L767.795 492.876L768.216 493.075L768.321 493.38L771.191 502.37L771.208 502.389L771.207 502.442L773.452 516.199L779.561 521.894L789.352 523.517L812.375 523.608L812.487 523.605L812.611 523.615L817.482 524.103L818.825 513.431L818.911 512.773L820.04 512.748L827.788 512.568L835.589 507.134L819.401 496.511L818.947 496.227L819.042 495.854L822.351 482.547L810.477 475.051L809.87 474.67L810.179 474.207L816.156 465.494L817.753 448.897L813.79 449.057L800.07 454.19L799.843 454.273L799.582 454.296L792.191 455.02L791.154 455.125L790.661 454.56L776.62 438.627L755.944 450.564L755.435 450.568L746.256 450.71L743.031 457.178L742.878 457.499L742.344 457.641L735.589 459.409L735.318 459.475L734.971 459.461L703.075 458.367Z" fill="white" fill-opacity="0.2"/>
<path fill-rule="evenodd" clip-rule="evenodd" d="M766.871 369.222L760.614 365.887L760.422 365.784L760.306 365.647L755.802 360.544L731.54 361.288L715.394 367.745L694.346 379.578L694.048 379.745L693.617 379.781L685.209 380.408L684.884 380.434L684.567 380.375L680.798 379.611L672.928 403.192L683.333 410.473L683.797 410.798L683.636 411.186L681.279 416.811L681.191 417.014L673.98 421.177L684.391 441.755L703.147 456.798L734.628 457.876L740.559 456.327L743.885 449.668L744.147 449.156L745.082 449.143L754.678 448.993L775.081 437.215L767.594 432.305L767.053 431.943L767.291 431.507L773.06 421.694L762.339 413.029L754.635 412.567L753.005 412.467L753.349 411.566L757.751 399.789L757.812 399.611L758.012 399.477L770.703 390.811L756.472 382.595L756.858 382.097L766.871 369.222Z" fill="white" fill-opacity="0.4"/>
<path fill-rule="evenodd" clip-rule="evenodd" d="M824.629 373.93L806.675 371.829L769.412 369.911L759.74 382.328L774.419 390.802L773.625 391.345L760.359 400.405L756.351 411.096L763.096 411.504L763.755 411.541L764.139 411.852L775.669 421.171L776.102 421.523L775.877 421.905L770.137 431.672L776.942 436.14L777.258 435.957L778.143 436.966L792.583 453.357L798.703 452.763L812.47 447.607L812.747 447.505L813.093 447.49L818.951 447.261L830.338 445.817L835.544 443.11L832.806 437.848L832.61 437.476L832.991 437.171L838.021 433.285L836.296 430.063L831.362 430.656L830.658 430.735L830.108 430.44L815.129 422.433L808.763 423.91L808.084 423.375L801.859 418.45L801.447 418.123L801.621 417.761L807.488 405.494L807.552 405.352L807.732 405.229L825.469 392.544L824.629 373.93Z" fill="white" fill-opacity="0.2"/>
<path fill-rule="evenodd" clip-rule="evenodd" d="M837.571 444.244L831.734 447.277L831.406 447.315L820.517 448.695L818.873 465.809L818.868 465.935L818.787 466.049L816.207 469.808L829.363 474.18L829.432 474.197L829.542 474.248L844.873 481.206L856.261 476.289L856.789 476.06L857.453 476.18L868.275 478.1L868.468 478.136L868.626 478.187L886.022 484.419L898.505 478.874L914.139 465.389L895.412 445.22L875.983 438.709L859.572 446.478L859.111 446.702L858.494 446.631L837.571 444.244Z" fill="white" fill-opacity="0.2"/>
<path fill-rule="evenodd" clip-rule="evenodd" d="M837.677 359.809L831.53 367.912L827.336 373.495L828.212 392.892L828.224 393.17L827.925 393.381L810.066 406.155L804.441 417.912L809.584 421.981L814.763 420.781L815.569 420.596L816.238 420.956L831.336 429.022L836.844 428.364L838.113 428.21L838.512 428.953L840.828 433.291L841.033 433.672L840.64 433.984L835.615 437.868L838.159 442.729L858.244 445.019L874.88 437.144L875.594 436.808L876.426 437.087L896.151 443.702L919.625 431.03L920.585 431.544L935.246 439.345L948.51 440.439L949.477 440.517L949.723 441.068L955.973 454.983L983.687 452.822L985.038 452.716L985.293 453.509L989.894 467.318L1003.92 470.676L1013.08 470.394L1014.95 459.56L1014.15 439.965L1008.45 432.101L1008.21 431.773L1008.45 431.467L1013.63 424.84L1003.21 418.522L996.14 417.577L995.735 417.526L995.426 417.339L959.066 396.027L946.2 393.782L945.219 393.607L945.15 393.02L944.57 387.695L932.688 381.756L921.778 382.684L921.235 382.736L920.759 382.545L911.829 379.02L879.333 373.808L878.984 373.753L878.709 373.608L859.942 363.429L837.677 359.809Z" fill="white" fill-opacity="0.2"/>
<path fill-rule="evenodd" clip-rule="evenodd" d="M953.506 455.685L947.316 441.911L934.58 440.859L934.136 440.82L933.792 440.644L919.766 433.175L898.109 444.87L916.926 465.14L917.319 465.563L916.883 465.948L900.69 479.907L900.584 480.007L900.425 480.08L888.835 485.227L898.794 487.864L898.939 487.899L899.078 487.966L924.568 499.293L924.825 499.406L924.969 499.565L936.251 511.501L936.501 511.774L936.394 512.064L933.579 519.464L948.892 520.054L965.023 510.044L969.606 503.215L970.056 490.323L946.53 471.38L946.321 471.216L946.274 471.006L944.691 464.322L944.628 464.049L944.87 463.824L953.506 455.685Z" fill="white" fill-opacity="0.2"/>
<path fill-rule="evenodd" clip-rule="evenodd" d="M946.408 521.536L931.896 520.972L930.205 520.908L930.566 519.968L933.628 511.918L922.752 500.413L897.65 489.261L886.455 486.297L886.354 486.341L885.533 486.041L867.455 479.567L857.485 477.801L845.806 482.848L845.002 483.198L844.144 482.814L828.055 475.52L815.235 471.254L813.054 474.412L824.8 481.811L825.266 482.107L825.168 482.491L821.859 495.799L838.406 506.651L839.203 507.174L838.488 507.687L829.591 513.882L829.25 514.117L828.67 514.134L821.479 514.296L820.207 524.381L820.315 524.39L820.116 525.188L816.82 538.018L821.306 539.792L830.61 540.965L831.672 541.102L831.77 541.72L832.69 547.58L832.707 547.661L832.685 547.764L828.506 563.668L828.414 564.015L827.914 564.19L824.703 565.288L824.21 575.982L824.201 576.391L823.603 576.594L809.724 581.448L803.761 591.287L806.229 592.712L817.102 590.471L830.594 587.744L831.448 587.574L832.1 587.977L839.325 592.487L839.577 592.641L839.672 592.847L843.811 601.83L849.261 601.41L857.676 594.515L857.236 586.705L857.222 586.31L857.751 586.081L869.598 581.05L870.648 580.61L871.507 581.231L887.748 592.953L907.074 598.959L920.441 593.483L915.905 590.019L915.588 589.769L915.616 589.473L915.979 585.28L916.055 584.438L917.517 584.596L930.679 586.015L933.558 584.814L927.523 580.453L926.896 579.993L927.4 579.532L930.568 576.615L930.833 576.367L931.323 576.298L941.916 574.76L941.167 572.253L921.177 568.526L920.694 568.435L920.406 568.193L907.671 557.457L907.34 557.163L907.456 556.83L910.863 547.265L910.901 547.163L910.965 547.088L918.935 537.785L919.021 537.688L919.171 537.592L946.408 521.536Z" fill="white" fill-opacity="0.2"/>
<path fill-rule="evenodd" clip-rule="evenodd" d="M917.215 543.449L913.505 547.785L910.244 556.909L922.346 567.118L942.694 570.914L943.535 571.074L943.69 571.578L944.808 575.273L945.021 575.957L943.881 576.126L932.644 577.765L930.24 579.97L936.561 584.541L937.474 585.206L936.361 585.663L931.918 587.51L931.471 587.693L930.914 587.63L918.632 586.305L918.365 589.365L923.359 593.188L932.626 598.537L950.03 599.36L970.498 587.9L971.509 587.335L972.477 587.982L980.529 593.268L998.703 593.105L1017.91 588.453L1018.16 588.393L1018.42 588.396L1035.74 588.367L1069.88 580.203L1068.51 575.162L1068.5 575.093L1068.5 575.008L1068.97 567.932L1059.69 564.172L1059.12 563.937L1059.07 563.534L1057.85 552.249L1042.22 542.601L1036.7 545.47L1036.63 545.512L1028.34 549.211L1027.93 549.392L1027.38 549.357L1006.69 547.922L1005.82 547.859L1005.5 547.376L1000.31 539.726L993.668 535.294L961.566 545.407L960.807 545.646L960.081 545.324L942.082 537.56L917.215 543.449Z" fill="white" fill-opacity="0.2"/>
<path fill-rule="evenodd" clip-rule="evenodd" d="M950.068 600.933L932.033 600.089L931.502 600.059L922.26 594.723L908.065 600.544L907.407 600.814L906.646 600.575L886.287 594.249L886.012 594.161L885.817 594.032L870.248 582.79L859.979 587.151L860.419 594.818L860.437 595.069L860.174 595.278L851.191 602.634L850.875 602.892L850.328 602.937L843.088 603.499L841.827 603.595L841.493 602.876L837.105 593.366L830.782 589.414L818.14 591.968L818.136 591.966L806.46 594.37L805.638 594.541L802.228 592.573L775.857 607.797L773.957 615.917L773.904 616.176L773.58 616.349L752.467 627.82L752.24 633.801L752.219 634.132L751.804 634.338L741.489 639.576L740.854 639.895L740.034 639.675L733.326 637.878L722.478 645.982L729.44 646.912L729.805 646.962L730.096 647.117L743.222 654.004L744.383 654.625L728.228 662.779L727.543 663.131L726.672 662.856L716.731 659.61L712.258 661.903L712.326 668.393L712.347 669.131L711.045 669.132L693.827 669.143L690.447 675.904L707.313 690.961L707.55 691.156L707.547 691.381L708.275 704.419L718.962 711.822L735.117 708.308L735.731 708.186L736.319 708.392L748.833 712.736L758.761 708.691L768.831 704.326L769.573 704.006L770.386 704.311L785.977 710.084L797.098 705.364L797.3 705.281L797.565 705.246L825.245 701.556L825.609 701.517L825.967 701.577L853.226 706.459L853.926 706.587L854.179 706.996L858.755 714.597L863.082 717.095L877.085 712.753L877.735 712.549L878.407 712.764L889.903 716.413L898.483 717.154L898.311 709.304L892.526 707.999L882.735 706.073L882.171 705.961L881.895 705.655L862.2 684.116L862.09 683.99L862.053 683.84L860.474 677.158L860.424 676.974L860.538 676.794L868.875 663.295L869.054 663.012L869.521 662.885L882.364 659.445L882.808 659.327L883.294 659.407L904.399 662.775L904.84 662.843L905.13 663.046L912.062 667.725L912.472 667.997L912.404 668.349L911.017 676.026L910.964 676.28L910.667 676.461L898.778 683.666L900.135 689.147L910.087 691.441L910.437 691.519L910.681 691.682L916.672 695.822L916.924 695.989L916.98 696.2L918.442 700.427L918.449 700.48L918.456 700.552L919.374 711.709L926.547 713.009L936.173 711.314L937.725 703.256L937.766 703.057L937.964 702.895L943.184 698.794L943.451 698.597L943.865 698.524L961.67 695.749L972.265 691.247L967.728 687.769L967.62 687.679L967.539 687.588L956.702 672.499L956.637 672.412L956.595 672.304L954.653 664.388L954.588 664.155L954.771 663.945L960.181 657.531L950.802 654.236L949.99 653.945L950.1 653.421L951.061 648.887L951.098 648.694L951.289 648.542L957.669 643.41L957.677 643.414L961.225 640.089L954.657 634.084L954.119 633.582L954.733 633.162L964.203 626.688L945.26 614.777L944.328 614.204L958.951 605.762L950.068 600.933Z" fill="white" fill-opacity="0.2"/>
<path fill-rule="evenodd" clip-rule="evenodd" d="M1170.29 544.163L1151.42 539.802L1150.87 539.675L1150.62 539.369L1126.61 509.818L1100.58 510.191L1099.29 510.213L1099.11 509.463L1097.61 503.428L1097.52 503.043L1119.08 490.599L1122.88 484.812L1123.19 484.361L1124.05 484.347L1185.73 483.509L1198.11 474.909L1199.31 464.127L1185.72 458.306L1158.16 454.487L1157.73 454.428L1157.42 454.236L1142.79 445.103L1135.63 446.765L1136.9 458.494L1136.99 459.293L1135.59 459.278L1109.49 459.036L1109.45 459.04L1096.21 459.125L1076.19 469.975L1075.24 470.499L1074.28 469.919L1042.43 450.874L1017.31 450.536L1017.68 459.653L1017.69 459.679L1017.67 459.75L1015.7 471.274L1015.59 471.897L1014.5 471.934L1003.91 472.258L1003.58 472.261L1003.29 472.196L988.231 468.591L987.493 468.414L987.34 467.966L982.858 454.488L955.838 456.6L947.462 464.489L948.927 470.686L972.532 489.687L972.82 489.916L972.803 490.191L972.331 503.48L972.33 503.613L972.242 503.736L967.479 510.83L967.399 510.957L967.233 511.062L950.529 521.427L950.118 521.679L950.094 521.679L921.312 538.655L919.081 541.259L941.611 535.922L942.33 535.754L942.978 536.035L960.88 543.769L993.201 533.591L994.168 533.29L994.912 533.795L1002.49 538.84L1002.64 538.944L1002.74 539.091L1007.7 546.412L1026.98 547.743L1034.83 544.246L1041.26 540.894L1042.22 540.388L1043.18 540.976L1060.14 551.448L1060.5 551.666L1060.54 551.961L1061.74 563.137L1071.1 566.935L1071.74 567.197L1071.71 567.649L1071.23 575.078L1072.54 579.908L1089.48 579.651L1104.05 578.647L1102.74 570.975L1102.69 570.618L1113.57 564.336L1114.42 564.547L1153.21 574.267L1166.31 565.62L1170.29 544.163Z" fill="white" fill-opacity="0.2"/>
<path fill-rule="evenodd" clip-rule="evenodd" d="M732.545 745.983L746.231 745.157L768.155 756.064L783.351 749.143L798.037 751.82L807.744 758.003L811.029 770.362L825.079 770.922L830.059 757.515L839.855 746.902L860.123 746.973L871.76 750.793L871.633 766.983L898.875 784.687L898.953 784.647L899.155 784.564L899.404 784.529L920.804 781.416L911.484 762.208L911.251 761.735L911.855 761.433L923.315 755.672L923.78 755.442L924.408 755.502L973.298 760.476L991.077 750.625L1000.98 742.011L1000.19 733.588L993.66 732.571L993.102 732.484L992.779 732.2L987.136 726.939L986.96 726.78L986.922 726.593L980.916 694.743L974.337 692.396L963.201 697.12L963.019 697.202L945.183 699.981L940.409 703.73L938.801 712.08L938.716 712.557L937.912 712.693L927.104 714.592L926.709 714.663L926.295 714.589L917.722 713.028L916.741 712.849L916.704 712.262L915.741 700.58L914.382 696.616L908.88 692.821L898.473 690.424L897.674 690.239L897.56 689.759L895.993 683.427L895.904 683.051L896.336 682.801L908.355 675.506L909.624 668.439L903.391 664.23L883.218 661.008L871.272 664.205L863.231 677.233L864.735 683.574L884.044 704.689L893.289 706.509L893.338 706.528L900.098 708.054L901.021 708.261L901.045 708.827L901.26 718.105L901.281 718.977L899.773 718.845L889.41 717.956L889.158 717.931L888.919 717.86L877.873 714.354L862.724 719.054L856.406 715.407L856.284 715.221L851.856 707.838L825.662 703.148L798.614 706.749L786.969 711.696L786.23 712.008L785.425 711.704L769.834 705.926L760.503 709.974L760.479 709.978L750.746 713.954L765.833 729.667L766.138 729.99L765.941 730.317L761.378 738.061L761.211 738.352L760.737 738.479L752.296 740.796L751.932 740.897L751.52 740.86L737.764 739.646L732.545 745.983Z" fill="white" fill-opacity="0.2"/>
<path fill-rule="evenodd" clip-rule="evenodd" d="M1311.52 659.116L1297.87 660.953L1286.04 663.44L1285.87 663.469L1285.72 663.48L1247.08 665.879L1246.98 665.886L1246.87 665.886L1197.21 664.678L1196.96 664.668L1196.74 664.616L1165.69 657.409L1156.06 662.43L1150.43 673.741L1150.17 674.246L1149.25 674.263L1129.57 674.734L1114.59 681.672L1114.28 681.809L1113.88 681.829L1100.65 682.431L1100.05 682.457L1099.58 682.211L1078.11 670.881L1062.62 676.397L1062.07 676.316L1048.21 674.355L1047.07 674.194L1047.09 673.521L1047.43 663.798L1018.94 667.006L1018.28 667.082L1017.76 666.828L997.018 657.005L962.9 658.025L957.422 664.502L959.293 672.06L970.003 686.951L975.109 690.856L982.866 693.625L983.492 693.848L983.562 694.249L989.612 726.329L994.772 731.129L1001.78 732.213L1002.8 732.379L1002.86 732.989L1003.74 742.275L1003.76 742.537L1003.53 742.74L999.234 746.465L1026.59 755.216L1026.98 755.341L1027.18 755.574L1040.15 770.246L1040.35 770.459L1040.29 770.695L1038.55 781.35L1053.72 784.518L1054.36 784.654L1054.61 785.017L1062.99 797.676L1072.49 800.881L1087.45 791.685L1087.67 791.554L1087.97 791.5L1113.71 786.592L1114.54 786.436L1115.19 786.824L1144.61 804.879L1172.24 801.115L1175.4 790.312L1175.48 790.042L1175.84 789.874L1187.33 784.412L1187.37 784.387L1209.23 775.175L1200.99 755.961L1200.88 755.711L1201.04 755.477L1206.06 748.482L1206.35 748.069L1207.15 748.038L1232.47 747.128L1241.48 739.097L1241.49 739.092L1257.89 724.944L1258.2 724.67L1258.78 724.627L1281.79 722.831L1296.5 713.771L1310.75 692.303L1302.04 674.815L1301.87 674.486L1302.18 674.2L1311.77 665.217L1311.52 659.116Z" fill="white" fill-opacity="0.2"/>
<path fill-rule="evenodd" clip-rule="evenodd" d="M1311.52 659.116L1297.87 660.953L1286.04 663.44L1285.87 663.469L1285.72 663.48L1247.08 665.879L1246.98 665.886L1246.87 665.886L1197.21 664.678L1196.96 664.668L1196.74 664.616L1165.69 657.409L1156.06 662.43L1150.43 673.741L1150.17 674.246L1149.25 674.263L1129.57 674.734L1114.59 681.672L1114.28 681.809L1113.88 681.829L1100.65 682.431L1100.05 682.457L1099.58 682.211L1078.11 670.881L1062.62 676.397L1062.07 676.316L1048.21 674.355L1047.07 674.194L1047.09 673.521L1047.43 663.798L1018.94 667.006L1018.28 667.082L1017.76 666.828L997.018 657.005L962.9 658.025L957.422 664.502L959.293 672.06L970.003 686.951L975.109 690.856L982.866 693.625L983.492 693.848L983.562 694.249L989.612 726.329L994.772 731.129L1001.78 732.213L1002.8 732.379L1002.86 732.989L1003.74 742.275L1003.76 742.537L1003.53 742.74L999.234 746.465L1026.59 755.216L1026.98 755.341L1027.18 755.574L1040.15 770.246L1040.35 770.459L1040.29 770.695L1038.55 781.35L1053.72 784.518L1054.36 784.654L1054.61 785.017L1062.99 797.676L1072.49 800.881L1087.45 791.685L1087.67 791.554L1087.97 791.5L1113.71 786.592L1114.54 786.436L1115.19 786.824L1144.61 804.879L1172.24 801.115L1175.4 790.312L1175.48 790.042L1175.84 789.874L1187.33 784.412L1187.37 784.387L1209.23 775.175L1200.99 755.961L1200.88 755.711L1201.04 755.477L1206.06 748.482L1206.35 748.069L1207.15 748.038L1232.47 747.128L1241.48 739.097L1241.49 739.092L1257.89 724.944L1258.2 724.67L1258.78 724.627L1281.79 722.831L1296.5 713.771L1310.75 692.303L1302.04 674.815L1301.87 674.486L1302.18 674.2L1311.77 665.217L1311.52 659.116Z" fill="white" fill-opacity="0.2"/>
<path fill-rule="evenodd" clip-rule="evenodd" d="M1068.81 145.497L1060.32 144.796L1050.25 147.229L1027.22 161.231L1026.55 161.646L1025.63 161.36L1001.38 153.863L992.102 157.886L991.255 158.257L990.392 157.834L983.739 154.603L976.3 156.96L975.984 157.067L975.629 157.054L970.385 156.961L970.767 164.082L974.609 175.654L992.042 192.254L992.219 192.418L992.245 192.607L993.65 200.862L1014.24 214.832L1023.48 211.252L1023.9 211.092L1024.43 211.139L1031.98 211.842L1033 211.935L1033.19 212.515L1036.68 222.58L1036.78 222.869L1036.52 223.124L1029.93 229.566L1032.78 242.069L1044.14 247.92L1044.58 248.151L1044.63 248.473L1047.4 266.237L1055.37 262.55L1061.27 255.782L1061.43 246.902L1061.44 246.293L1062.47 246.183L1080.21 244.301L1090.46 236.885L1096 225.989L1096.14 225.725L1096.52 225.582L1106.87 221.701L1101.32 217.558L1100.73 217.122L1101.19 216.671L1105.34 212.541L1094.24 205.794L1093.68 205.455L1093.88 205.029L1096.21 199.783L1096.39 199.375L1097.09 199.264L1105.13 197.968L1111.26 193.742L1105.21 187.06L1099.34 187.44L1098.57 187.49L1098.06 187.129L1092.62 183.255L1092.34 183.054L1092.29 182.803L1091.33 176.351L1080.45 171.47L1079.7 171.132L1079.92 170.624L1083.59 162.061L1080.06 156.74L1063.85 153.366L1062.31 153.041L1063.02 152.232L1068.81 145.497Z" fill="white" fill-opacity="0.2"/>
<path fill-rule="evenodd" clip-rule="evenodd" d="M1048.94 290.866L1057.53 311.047L1066.52 315.75L1067.04 316.022L1066.99 316.425L1065.44 329.195L1065.39 329.601L1064.79 329.785L1042.81 336.725L1044.19 351.121L1078.04 372.655L1078.28 372.811L1078.37 372.997L1088.55 394.308L1088.66 394.514L1088.56 394.724L1077.42 418.89L1088.62 441.073L1109.55 448.57L1110.23 448.819L1110.26 449.258L1110.71 457.47L1134.08 457.684L1132.84 446.215L1132.78 445.679L1133.62 445.481L1142.5 443.422L1143.39 443.22L1144.07 443.644L1159.06 453.009L1185.75 456.699L1196.49 450.497L1190.45 440.837L1190.02 440.158L1203.79 436.749L1196.51 428.721L1186.6 426.42L1185.23 426.1L1185.77 425.345L1197.34 408.977L1177.36 396.741L1176.93 396.478L1176.96 396.137L1177.99 380.323L1172.89 368.843L1172.86 368.764L1172.85 368.69L1171.48 355.68L1171.47 355.657L1171.48 355.611L1173.65 313.729L1173.66 313.368L1174.14 313.161L1195.47 303.912L1195.79 303.775L1223.04 303.23L1217.18 296.765L1216.7 296.239L1230.12 288.492L1219.43 282.457L1205.89 282.028L1205.3 282.015L1204.89 281.761L1190.68 272.825L1190.3 272.581L1190.29 272.261L1190.17 264.288L1183.66 260.354L1170.78 256.463L1143.74 253.757L1112.97 259.559L1112.09 259.726L1111.46 259.298L1095.45 248.612L1080.99 245.838L1064.15 247.634L1064 256.076L1063.99 256.253L1063.86 256.414L1057.7 263.473L1057.58 263.611L1057.37 263.706L1048.32 267.899L1065.34 277.609L1066.24 278.124L1065.5 278.664L1048.94 290.866Z" fill="white" fill-opacity="0.2"/>
<path fill-rule="evenodd" clip-rule="evenodd" d="M1048.94 290.866L1057.53 311.047L1066.52 315.75L1067.04 316.022L1066.99 316.425L1065.44 329.195L1065.39 329.601L1064.79 329.785L1042.81 336.725L1044.19 351.121L1078.04 372.655L1078.28 372.811L1078.37 372.997L1088.55 394.308L1088.66 394.514L1088.56 394.724L1077.42 418.89L1088.62 441.073L1109.55 448.57L1110.23 448.819L1110.26 449.258L1110.71 457.47L1134.08 457.684L1132.84 446.215L1132.78 445.679L1133.62 445.481L1142.5 443.422L1143.39 443.22L1144.07 443.644L1159.06 453.009L1185.75 456.699L1196.49 450.497L1190.45 440.837L1190.02 440.158L1203.79 436.749L1196.51 428.721L1186.6 426.42L1185.23 426.1L1185.77 425.345L1197.34 408.977L1177.36 396.741L1176.93 396.478L1176.96 396.137L1177.99 380.323L1172.89 368.843L1172.86 368.764L1172.85 368.69L1171.48 355.68L1171.47 355.657L1171.48 355.611L1173.65 313.729L1173.66 313.368L1174.14 313.161L1195.47 303.912L1195.79 303.775L1223.04 303.23L1217.18 296.765L1216.7 296.239L1230.12 288.492L1219.43 282.457L1205.89 282.028L1205.3 282.015L1204.89 281.761L1190.68 272.825L1190.3 272.581L1190.29 272.261L1190.17 264.288L1183.66 260.354L1170.78 256.463L1143.74 253.757L1112.97 259.559L1112.09 259.726L1111.46 259.298L1095.45 248.612L1080.99 245.838L1064.15 247.634L1064 256.076L1063.99 256.253L1063.86 256.414L1057.7 263.473L1057.58 263.611L1057.37 263.706L1048.32 267.899L1065.34 277.609L1066.24 278.124L1065.5 278.664L1048.94 290.866Z" fill="white" fill-opacity="0.2"/>
<path fill-rule="evenodd" clip-rule="evenodd" d="M1112.05 117.033L1100.54 111.669L1071.82 109.037L1049.57 110.721L1031.79 99.2937L1002.9 102.957L987.967 96.0816L973.843 103.613L941.901 99.1217L925.356 109.912L923.846 120.082L904.146 120.918L897.736 127.097L907.595 136.274L897.698 145.088L886.844 146.667L887.572 147.221L898.153 150.952L898.612 151.114L898.783 151.405L901.037 155.27L920.47 163.056L936.38 161.369L954.422 155.204L954.757 155.086L955.132 155.093L975.182 155.466L983.118 152.951L983.927 152.697L984.68 153.06L991.214 156.24L1000.32 152.294L1000.99 151.999L1001.77 152.241L1025.87 159.695L1048.39 145.999L1048.57 145.892L1048.81 145.832L1059.47 143.257L1059.8 143.175L1060.17 143.205L1070.6 144.063L1093.9 137.505L1097.92 126.159L1097.99 125.963L1098.23 125.813L1112.05 117.033Z" fill="white" fill-opacity="0.4"/>
<path fill-rule="evenodd" clip-rule="evenodd" d="M1238.56 161.581L1220.2 151.696L1190.63 143.345L1172.96 152.315L1167.55 157.909L1156.07 157.1L1162.82 147.623L1154.73 142.376L1153.39 127.651L1126.68 123.862L1114.24 118.06L1100.54 126.774L1096.46 138.272L1096.33 138.628L1095.78 138.779L1071.95 145.491L1066.18 152.206L1081.5 155.4L1082.14 155.536L1082.38 155.901L1086.3 161.822L1086.46 162.053L1086.34 162.294L1082.79 170.59L1093.44 175.363L1093.94 175.595L1094 175.957L1094.98 182.517L1099.63 185.826L1106.67 185.368L1107.14 185.885L1114.09 193.563L1114.53 194.035L1113.97 194.424L1107.03 199.206L1106.79 199.376L1106.41 199.433L1098.68 200.682L1096.72 205.087L1107.99 211.949L1108.74 212.395L1108.23 212.9L1104.03 217.087L1109.91 221.477L1110.83 222.168L1098.5 226.796L1093.01 237.56L1092.94 237.704L1092.79 237.811L1083.32 244.657L1096.56 247.199L1096.95 247.271L1097.21 247.448L1112.86 257.889L1143.05 252.196L1143.35 252.139L1143.7 252.173L1171.31 254.934L1171.53 254.957L1171.73 255.016L1185.02 259.027L1185.23 259.095L1185.4 259.193L1199.25 267.543L1212.19 268.604L1215.25 251.041L1208.03 245.119L1207.54 244.714L1207.91 244.294L1216.66 234.452L1210.71 231.581L1201.98 235.557L1200.81 236.087L1199.95 235.324L1196.52 232.241L1196.19 231.941L1196.33 231.615L1198.39 226.586L1192.88 224.786L1183.08 229.721L1181.91 230.306L1181.02 229.512L1176.2 225.273L1175.83 224.942L1176.03 224.583L1179.34 218.702L1162.13 209.119L1161.58 208.815L1161.69 208.394L1164.33 199.043L1147.85 189.528L1147.89 189.157L1148.58 183.692L1148.66 183.052L1149.77 183.008L1208.31 180.885L1238.56 161.581Z" fill="white" fill-opacity="0.2"/>
<path fill-rule="evenodd" clip-rule="evenodd" d="M1526.03 415.308L1496.18 413.877L1501.75 401.979L1514.5 407.019L1524.73 385.612L1501.32 375.578L1487.46 360.023L1458.71 347.493L1412.03 358.323L1407.36 349.236L1424.58 322.559L1451.4 309.565L1425.26 297.382L1397.67 305.865L1396.29 318.438L1374.55 319.829L1367.04 306.196L1381.35 294.837L1380.66 294.682L1364.86 294.756L1364.09 294.76L1363.64 294.381L1358.25 289.828L1358.2 289.79L1351.53 283.361L1343.93 286.425L1343.58 286.57L1343.15 286.564L1315.19 286.044L1301.48 290.343L1298.78 297.021L1296.54 302.906L1296.32 303.481L1295.28 303.475L1265.46 303.288L1248.14 309.524L1247.23 309.851L1238.23 304.656L1225.35 304.768L1225.27 304.773L1196.9 305.337L1176.37 314.241L1174.23 355.705L1175.59 368.619L1180.71 380.137L1180.76 380.255L1180.74 380.369L1179.73 395.958L1199.93 408.321L1200.56 408.715L1200.24 409.187L1188.86 425.271L1197.91 427.377L1198.42 427.494L1198.67 427.777L1206.89 436.834L1207.56 437.577L1193.45 441.07L1199.37 450.525L1199.67 450.99L1188.36 457.522L1201.52 463.159L1202.16 463.438L1202.11 463.885L1200.83 475.358L1200.8 475.607L1200.55 475.791L1189.15 483.707L1205.28 484.97L1206.09 485.03L1206.42 485.466L1215.11 496.713L1233.08 498.421L1246.97 491.141L1247.42 490.908L1248.04 490.958L1303.75 495.632L1310.65 482.546L1293.77 477.445L1280.06 477.914L1279.05 477.948L1278.64 477.405L1268.93 464.607L1268.53 464.08L1269.24 463.726L1279.86 458.358L1280.16 458.209L1280.58 458.183L1308.75 456.478L1309.39 456.444L1309.88 456.699L1325.35 464.963L1331.08 461.004L1333.83 454.187L1334.07 453.596L1335.12 453.621L1354.02 453.968L1370.87 447.9L1376.91 431.629L1377.09 431.143L1377.93 431.057L1390.71 429.815L1392.15 429.679L1392.38 430.517L1403.62 470.792L1403.7 471.08L1403.45 471.317L1395.48 478.772L1411.18 487.153L1411.5 487.322L1411.6 487.568L1418.04 502.43L1435.7 505.447L1444.94 496.472L1445.2 496.221L1445.7 496.146L1457.67 494.28L1460.81 484.409L1460.98 483.861L1461.93 483.809L1506.44 481.372L1509.38 470.473L1495.72 460.483L1495.31 460.186L1495.42 459.836L1502.47 435.702L1502.63 435.565L1526.03 415.308Z" fill="white" fill-opacity="0.2"/>
<path fill-rule="evenodd" clip-rule="evenodd" d="M497.001 306.617L491.739 309.403L475.6 299.516L460.101 301.018L450.499 296.641L423.198 300.634L399.972 294.207L404.734 277.197L379.274 258.421L352.758 258.233L365.639 284.267L351.522 282.501L345.046 268.883L330.075 267.582L325.692 276.053L336.731 282.426L336.688 282.802L334.688 298.592L334.617 299.113L307.444 303.607L305.506 318.886L305.451 319.388L304.615 319.534L296.298 320.997L284.266 327.126L283.173 336.077L298.002 335.755L298.42 336.264L305.649 344.965L316.024 343.648L317.162 343.504L317.64 344.145L323.1 351.326L323.481 351.818L310.163 359.507L316.119 368.311L316.448 368.79L303.542 376.241L300.673 384.242L314.971 391.017L326.455 389.26L327.229 389.145L348.999 401.713L375.2 401.408L381.099 397.271L370.532 389.662L369.794 389.133L370.52 388.653L379.316 382.738L382.758 368.02L382.845 367.661L383.404 367.481L409.107 359.386L412.043 349.376L412.28 348.551L437.763 352.995L438.769 353.18L438.814 353.78L439.167 360.097L450.71 366.026L468.886 362.833L486.686 350.006L487.187 349.641L488.014 349.758L514.819 353.492L536.506 337.714L524.162 329.848L508.644 327.942L507.742 327.835L507.514 327.316L503.377 317.662L497.001 306.617Z" fill="#70CAF3"/>
<path fill-rule="evenodd" clip-rule="evenodd" d="M460.018 457.396L483.779 464.626L499.544 458.621L523.179 462.96L543.845 470.243L551.546 472.712L572.408 460.046L564.117 453.046L563.799 452.778L563.885 452.463L565.635 445.744L565.69 445.518L565.952 445.357L578.002 437.831L569.087 435.636L568.776 435.554L568.561 435.403L561.379 430.669L560.457 430.066L561.441 429.57L571.258 424.534L571.598 424.352L572.079 424.345L588.542 424.058L600.164 417.349L598.567 397.937L590.421 390.919L590.128 390.665L590.176 390.377L591.801 381.199L591.836 380.97L592.077 380.798L603.306 373.109L593.476 361.722L593.233 361.435L593.387 361.132L598.822 350.828L588.503 347.573L588.243 347.481L588.044 347.344L574.478 337.278L563.074 342.118L562.577 342.33L561.946 342.233L538.861 338.612L516.496 354.88L515.996 355.255L515.157 355.136L488.352 351.402L470.819 364.035L470.578 364.208L470.204 364.272L450.909 367.661L450.172 367.797L449.558 367.482L436.924 360.999L436.453 360.753L436.436 360.392L436.094 354.331L414.489 350.563L411.702 360.093L411.61 360.44L411.07 360.614L385.387 368.698L382.053 382.917L405.748 399.682L415.469 397.205L416.399 396.967L417.106 397.437L425.354 403.009L426.037 403.47L425.495 403.958L415.704 412.883L424.565 419.463L438.865 421.579L439.419 421.658L439.721 421.935L465.406 443.891L465.774 444.201L465.626 444.543L460.018 457.396Z" fill="#70CAF3"/>
<path fill-rule="evenodd" clip-rule="evenodd" d="M266.887 478.649L277.984 491.703L324.088 517.153L336.945 505.39L350.231 510.736L404.129 489.546L406.169 479.683L397.402 471.723L407.575 467.716L433.623 468.796L437.385 452.264L446.308 454.036L457.451 456.712L462.819 444.415L437.815 423.039L424.671 421.092L416.376 432.433L416.232 432.635L415.896 432.753L383.774 444.497L378.768 455.788L378.62 456.13L378.09 456.269L350.684 463.581L341.292 472.379L340.311 473.287L339.064 472.407L327.288 464.019L317.495 461.651L316.414 461.392L316.601 460.752L318.545 454.141L309.507 454.453L300.973 467.358L300.616 467.886L299.597 467.814L283.042 466.587L282.898 466.575L282.785 466.55L270.315 464.124L266.887 478.649Z" fill="#70CAF3"/>
<path fill-rule="evenodd" clip-rule="evenodd" d="M225.146 461.955L241.562 471.819L264.491 477.064L267.822 462.923L268.031 462.042L269.548 462.33L283.395 465.021L298.779 466.165L307.25 453.358L307.537 452.922L308.359 452.898L320.031 452.5L321.851 452.437L321.562 453.468L319.52 460.454L328.558 462.645L328.917 462.727L329.137 462.894L339.923 470.572L348.559 462.491L348.759 462.304L349.077 462.215L376.279 454.959L381.261 443.73L381.396 443.443L381.806 443.297L414.002 431.52L422.256 420.235L413 413.35L412.377 412.893L412.885 412.434L422.649 403.53L415.779 398.9L406.054 401.376L405.089 401.62L404.389 401.126L380.656 384.34L373.367 389.246L383.913 396.844L384.627 397.358L383.945 397.837L377.005 402.708L376.637 402.963L376.048 402.971L348.63 403.299L348.029 403.304L326.551 390.905L315.161 392.642L314.474 392.744L313.902 392.476L298.333 385.099L297.638 384.779L297.818 384.295L300.94 375.607L301.023 375.388L313.281 368.311L307.309 359.512L306.98 359.037L320.241 351.382L315.644 345.331L305.325 346.639L304.23 346.778L303.715 346.173L296.393 337.369L282.995 337.657L281.901 346.718L290.826 350.37L291.559 350.669L291.428 351.172L289.728 357.942L297.118 365.334L297.48 365.69L297.21 366.05L290.55 375.023L284.124 390.957L283.722 391.112L264.344 398.918L256.768 416.014L256.723 416.125L256.628 416.209L245.675 426.844L245.588 426.927L245.453 427.001L229.763 435.222L230.807 454.061L230.812 454.224L230.702 454.383L225.146 461.955Z" fill="white" fill-opacity="0.2"/>
<path fill-rule="evenodd" clip-rule="evenodd" d="M225.146 461.955L241.562 471.819L264.491 477.064L267.822 462.923L268.031 462.042L269.548 462.33L283.395 465.021L298.779 466.165L307.25 453.358L307.537 452.922L308.359 452.898L320.031 452.5L321.851 452.437L321.562 453.468L319.52 460.454L328.558 462.645L328.917 462.727L329.137 462.894L339.923 470.572L348.559 462.491L348.759 462.304L349.077 462.215L376.279 454.959L381.261 443.73L381.396 443.443L381.806 443.297L414.002 431.52L422.256 420.235L413 413.35L412.377 412.893L412.885 412.434L422.649 403.53L415.779 398.9L406.054 401.376L405.089 401.62L404.389 401.126L380.656 384.34L373.367 389.246L383.913 396.844L384.627 397.358L383.945 397.837L377.005 402.708L376.637 402.963L376.048 402.971L348.63 403.299L348.029 403.304L326.551 390.905L315.161 392.642L314.474 392.744L313.902 392.476L298.333 385.099L297.638 384.779L297.818 384.295L300.94 375.607L301.023 375.388L313.281 368.311L307.309 359.512L306.98 359.037L320.241 351.382L315.644 345.331L305.325 346.639L304.23 346.778L303.715 346.173L296.393 337.369L282.995 337.657L281.901 346.718L290.826 350.37L291.559 350.669L291.428 351.172L289.728 357.942L297.118 365.334L297.48 365.69L297.21 366.05L290.55 375.023L284.124 390.957L283.722 391.112L264.344 398.918L256.768 416.014L256.723 416.125L256.628 416.209L245.675 426.844L245.588 426.927L245.453 427.001L229.763 435.222L230.807 454.061L230.812 454.224L230.702 454.383L225.146 461.955Z" fill="white" fill-opacity="0.2"/>
<path fill-rule="evenodd" clip-rule="evenodd" d="M69.0931 432.305L58.0047 432.106L43.9857 441.443L38.8858 461.744L16.6734 473.328L3.90758 477.592L1.72249 494.349L10.6931 496.611L20.4832 495.3L24.5142 502.266L30.5883 508.684L46.8307 511.085L73.5033 495.687L118.238 477.92L167.161 479.428L193.474 466.721L201.354 459.066L222.655 461.186L228.045 453.843L227.014 435.52L216.616 434.579L216.128 434.533L215.77 434.313L198.927 423.802L182.408 422.359L179.463 427.939L179.099 428.615L177.886 428.427L164.498 426.383L160.843 440.906L170.355 448.735L170.868 449.161L170.458 449.583L160.9 459.407L160.332 459.992L159.218 459.709L146.766 456.555L146.467 456.48L146.24 456.336L137.852 450.741L105.105 456.221L103.5 456.492L103.294 455.5L101.439 446.237L90.5105 446.406L89.8344 446.417L89.3709 446.1L69.0931 432.305Z" fill="#88A5CE"/>
<path fill-rule="evenodd" clip-rule="evenodd" d="M83.2672 418.708L77.4397 426.474L71.6354 431.663L90.9539 444.814L102.523 444.641L103.863 444.613L104.01 445.388L105.812 454.434L137.806 449.08L138.654 448.932L139.262 449.346L148.039 455.201L159.057 457.986L167.636 449.168L158.319 441.492L157.986 441.224L158.055 440.904L163.284 420.134L151.983 412.849L143.867 410.919L127.392 427.952L126.85 428.517L125.754 428.271L83.2672 418.708Z" fill="#88A5CE"/>
<path fill-rule="evenodd" clip-rule="evenodd" d="M85.7429 408.995L81.794 411.555L83.5248 417.104L125.524 426.555L141.254 410.294L133.835 408.522L113.812 414.255L113.455 414.361L113.031 414.316L99.9792 413.246L99.7391 413.223L99.5164 413.157L85.7429 408.995Z" fill="#88A5CE"/>
<path fill-rule="evenodd" clip-rule="evenodd" d="M94.8654 377.662L78.4118 388.096L90.3264 406.016L87.5645 407.81L100.444 411.706L112.824 412.726L133.012 406.951L133.545 406.8L134.138 406.942L151.085 410.973L148.802 401.463L139.582 402.721L138.603 402.854L138.052 402.336L119.246 385.099L95.5582 377.737L94.8654 377.662Z" fill="#70CAF3"/>
<path fill-rule="evenodd" clip-rule="evenodd" d="M113.709 348.476L113.312 361.754L97.7433 371.359L96.1873 376.213L96.3156 376.229L96.5256 376.284L120.761 383.824L121.113 383.924L121.323 384.121L139.777 401.039L159.698 398.324L166.463 390.524L154.881 383.838L154.844 383.527L151.385 360.004L136.366 350.558L113.709 348.476Z" fill="#70CAF3"/>
<path fill-rule="evenodd" clip-rule="evenodd" d="M134.333 304.65L126.799 324.21L114.213 331.476L113.757 346.902L137.142 349.049L137.638 349.095L137.988 349.311L152.657 358.531L167.012 349.437L167.52 349.116L168.273 349.217L181.599 350.993L190.596 332.27L179.158 334.281L178.263 334.437L177.638 334L164.869 325.017L164.482 324.732L164.539 324.39L166.711 314.175L134.333 304.65Z" fill="#88A5CE"/>
<path fill-rule="evenodd" clip-rule="evenodd" d="M151.075 289.458L162.215 282.172L163.056 281.616L163.901 281.071L164.944 281.571L165.987 282.075L180.329 288.93L187.725 284.66L187.721 284.658L188.665 284.112L189.354 284.185L190.043 284.257L215.078 286.881L211.177 278.239L211.169 278.235L211.118 278.117L211.072 278.001L211.073 277.881L211.086 277.751L211.098 277.744L212.442 263.187L212.471 262.843L212.499 262.494L212.969 262.293L213.44 262.089L225.409 256.897L226.739 256.325L228.036 255.761L228.815 256.651L229.589 257.543L236.534 265.59L236.743 265.84L236.96 266.09L236.868 266.362L236.783 266.625L232.731 278.613L246.193 286.384L245.36 286.932L244.538 287.468L234.155 294.265L235.967 302.778L236.041 303.172L236.142 303.564L235.647 303.822L235.172 304.073L219.037 312.523L218.423 312.844L218.01 312.869L217.581 312.893L190.958 314.482L187.657 314.678L184.353 314.881L186.319 313.385L188.29 311.895L199.336 303.567L161.285 303.941L160.259 303.95L159.252 303.956L158.887 303.407L158.502 302.851L150.63 291.04L150.338 290.591L150.039 290.147L150.549 289.805L151.075 289.458ZM225.15 224.661L212.704 225.026L207.839 230.936L210.385 239.382L197.268 246.337L181.964 260.751L161.742 270.569L127.273 286.122L126.03 291.803L138.146 294.723L134.92 303.101L168.739 313.048L169.662 313.318L169.546 313.888L167.327 324.334L179.082 332.607L206.563 327.783L220.855 331.528L222.388 326.26L222.521 325.802L238.733 323.234L237.71 316.749L237.576 315.91L239.035 315.942L253.016 316.2L259.677 313.166L260.267 312.892L261.005 313.069L272.707 315.782L273.885 316.057L273.593 316.748L270.146 324.949L282.426 325.885L294.621 319.671L294.819 319.576L295.099 319.524L302.844 318.163L304.789 302.87L304.848 302.356L305.691 302.216L332.025 297.864L333.908 282.959L322.581 276.42L322.826 275.96L328.377 265.233L325.488 244.221L298.64 256.619L292.941 247.515L271.527 236.314L254.947 237.21L268.985 212.491L241.695 213.865L225.15 224.661Z" fill="#70CAF3"/>
<path fill-rule="evenodd" clip-rule="evenodd" d="M281.484 327.391L268.349 326.397L266.742 326.266L267.11 325.379L270.641 316.968L260.87 314.698L254.049 317.804L253.571 317.79L240.581 317.544L241.568 323.813L241.662 324.433L240.645 324.593L224.958 327.081L223.277 332.838L223 333.791L221.436 333.374L206.534 329.464L193.751 331.71L183.901 352.184L183.584 352.861L182.361 352.693L168.594 350.859L154.131 360.015L157.534 383.191L169.82 390.283L169.378 390.789L161.922 399.401L161.656 399.697L161.079 399.778L151.465 401.093L154.065 411.881L165.738 419.413L166.184 419.706L166.098 420.079L164.895 424.838L177.203 426.717L180.107 421.204L180.428 420.601L181.548 420.695L199.667 422.282L200.175 422.321L200.522 422.549L217.377 433.067L227.855 434.013L243.381 425.871L254.15 415.423L261.796 398.178L261.925 397.914L262.291 397.76L281.665 389.951L287.9 374.508L287.917 374.456L287.972 374.386L294.406 365.709L287.129 358.418L286.876 358.175L286.948 357.891L288.592 351.338L279.717 347.715L279.045 347.438L279.106 346.975L281.484 327.391Z" fill="#70CAF3"/>
<path fill-rule="evenodd" clip-rule="evenodd" d="M164.327 283.26L153.195 290.551L161.071 302.364L202.086 301.96L205.061 301.932L190.517 312.912L217.132 311.319L233.255 302.875L231.368 294.021L231.3 293.67L231.68 293.423L242.436 286.382L229.756 279.062L229.904 278.644L234.103 266.224L227.15 258.186L215.172 263.376L213.823 277.927L213.827 277.929L213.816 277.936L218.239 287.715L218.756 288.855L216.774 288.646L189.733 285.817L189.717 285.817L180.632 291.062L179.643 290.593L164.327 283.26Z" fill="#70CAF3"/>
<path fill-rule="evenodd" clip-rule="evenodd" d="M1279.06 647.63L1278.82 647.453L1278.77 647.232L1271.71 616.022L1255.08 612.971L1254.66 612.894L1254.38 612.694L1227.48 593.464L1227.71 593.371L1217.41 576.136L1217.32 575.997L1217.33 575.848L1218.39 553.921L1196.56 538.85L1173.06 544.24L1169.01 566.12L1168.96 566.351L1168.69 566.526L1154.71 575.756L1154.1 576.163L1153.18 575.93L1114.33 566.199L1105.54 571.277L1106.91 579.311L1107.05 580.035L1087.33 581.32L1087.38 581.266L1071.76 581.499L1036.69 589.886L1036.45 589.946L1036.19 589.946L1018.87 589.964L999.666 594.625L999.434 594.678L999.172 594.687L980.095 594.849L979.435 594.86L978.969 594.564L971.453 589.628L952.587 600.192L961.836 605.233L962.899 605.807L948.138 614.328L967.014 626.192L967.856 626.727L967.105 627.241L957.508 633.802L963.985 639.732L964.455 640.163L964.019 640.567L959.975 644.345L959.938 644.39L953.748 649.369L952.934 653.182L962.26 656.456L997.252 655.411L997.796 655.387L998.238 655.602L1018.88 665.384L1048.49 662.045L1050.26 661.852L1050.21 662.89L1049.85 672.985L1062.01 674.7L1077.43 669.21L1078.3 668.902L1079.09 669.321L1100.88 680.826L1113.09 680.271L1128.11 673.324L1128.43 673.174L1128.86 673.166L1148.03 672.709L1153.53 661.703L1153.63 661.499L1153.89 661.363L1164.39 655.89L1164.99 655.577L1165.78 655.759L1197.39 663.106L1246.7 664.296L1285.12 661.914L1295.22 659.788L1279.06 647.63Z" fill="white" fill-opacity="0.2"/>
<path fill-rule="evenodd" clip-rule="evenodd" d="M1279.06 647.63L1278.82 647.453L1278.77 647.232L1271.71 616.022L1255.08 612.971L1254.66 612.894L1254.38 612.694L1227.48 593.464L1227.71 593.371L1217.41 576.136L1217.32 575.997L1217.33 575.848L1218.39 553.921L1196.56 538.85L1173.06 544.24L1169.01 566.12L1168.96 566.351L1168.69 566.526L1154.71 575.756L1154.1 576.163L1153.18 575.93L1114.33 566.199L1105.54 571.277L1106.91 579.311L1107.05 580.035L1087.33 581.32L1087.38 581.266L1071.76 581.499L1036.69 589.886L1036.45 589.946L1036.19 589.946L1018.87 589.964L999.666 594.625L999.434 594.678L999.172 594.687L980.095 594.849L979.435 594.86L978.969 594.564L971.453 589.628L952.587 600.192L961.836 605.233L962.899 605.807L948.138 614.328L967.014 626.192L967.856 626.727L967.105 627.241L957.508 633.802L963.985 639.732L964.455 640.163L964.019 640.567L959.975 644.345L959.938 644.39L953.748 649.369L952.934 653.182L962.26 656.456L997.252 655.411L997.796 655.387L998.238 655.602L1018.88 665.384L1048.49 662.045L1050.26 661.852L1050.21 662.89L1049.85 672.985L1062.01 674.7L1077.43 669.21L1078.3 668.902L1079.09 669.321L1100.88 680.826L1113.09 680.271L1128.11 673.324L1128.43 673.174L1128.86 673.166L1148.03 672.709L1153.53 661.703L1153.63 661.499L1153.89 661.363L1164.39 655.89L1164.99 655.577L1165.78 655.759L1197.39 663.106L1246.7 664.296L1285.12 661.914L1295.22 659.788L1279.06 647.63Z" fill="white" fill-opacity="0.2"/>
<path fill-rule="evenodd" clip-rule="evenodd" d="M271.558 207.964L284.649 186.547L264.954 173.194L271.042 155.946L299.409 161.011L309.585 152.611L324.498 149.22L337.162 131.508L349.15 122.385L335.412 114.454L322.199 113.357L308.043 92.6433L286.188 78.0357L276.243 80.2959L276.379 96.4178L263.728 101.874L264.719 109.936L233.296 108.57L223.302 102.8L211.468 103.556L205.376 124.688L233.483 138.725L232.494 156.438L246.656 162.631L253.814 174.396L241.112 179.959L245.799 199.108L271.558 207.964Z" fill="#88A5CE"/>
<circle cx="209" cy="272" r="11" fill="white"/>
<path fill-rule="evenodd" clip-rule="evenodd" d="M209.906 298.56C213.931 296.516 230 287.394 230 272C230 260.402 220.598 251 209 251C197.402 251 188 260.402 188 272C188 287.394 204.069 296.516 208.094 298.56C208.666 298.85 209.334 298.85 209.906 298.56ZM209 281C213.971 281 218 276.971 218 272C218 267.029 213.971 263 209 263C204.029 263 200 267.029 200 272C200 276.971 204.029 281 209 281Z" fill="#E3051A"/>
<path fill-rule="evenodd" clip-rule="evenodd" d="M209.906 298.56C213.931 296.516 230 287.394 230 272C230 260.402 220.598 251 209 251C197.402 251 188 260.402 188 272C188 287.394 204.069 296.516 208.094 298.56C208.666 298.85 209.334 298.85 209.906 298.56ZM209 281C213.971 281 218 276.971 218 272C218 267.029 213.971 263 209 263C204.029 263 200 267.029 200 272C200 276.971 204.029 281 209 281Z" fill="url(#paint0_linear_0_402)" fill-opacity="0.2"/>
<circle cx="288" cy="243" r="11" fill="white"/>
<path fill-rule="evenodd" clip-rule="evenodd" d="M288.906 269.56C292.931 267.516 309 258.394 309 243C309 231.402 299.598 222 288 222C276.402 222 267 231.402 267 243C267 258.394 283.069 267.516 287.094 269.56C287.666 269.85 288.334 269.85 288.906 269.56ZM288 252C292.971 252 297 247.971 297 243C297 238.029 292.971 234 288 234C283.029 234 279 238.029 279 243C279 247.971 283.029 252 288 252Z" fill="#E3051A"/>
<path fill-rule="evenodd" clip-rule="evenodd" d="M288.906 269.56C292.931 267.516 309 258.394 309 243C309 231.402 299.598 222 288 222C276.402 222 267 231.402 267 243C267 258.394 283.069 267.516 287.094 269.56C287.666 269.85 288.334 269.85 288.906 269.56ZM288 252C292.971 252 297 247.971 297 243C297 238.029 292.971 234 288 234C283.029 234 279 238.029 279 243C279 247.971 283.029 252 288 252Z" fill="url(#paint1_linear_0_402)" fill-opacity="0.2"/>
<circle cx="222" cy="368" r="11" fill="white"/>
<path fill-rule="evenodd" clip-rule="evenodd" d="M222.906 394.56C226.931 392.516 243 383.394 243 368C243 356.402 233.598 347 222 347C210.402 347 201 356.402 201 368C201 383.394 217.069 392.516 221.094 394.56C221.666 394.85 222.334 394.85 222.906 394.56ZM222 377C226.971 377 231 372.971 231 368C231 363.029 226.971 359 222 359C217.029 359 213 363.029 213 368C213 372.971 217.029 377 222 377Z" fill="#E3051A"/>
<path fill-rule="evenodd" clip-rule="evenodd" d="M222.906 394.56C226.931 392.516 243 383.394 243 368C243 356.402 233.598 347 222 347C210.402 347 201 356.402 201 368C201 383.394 217.069 392.516 221.094 394.56C221.666 394.85 222.334 394.85 222.906 394.56ZM222 377C226.971 377 231 372.971 231 368C231 363.029 226.971 359 222 359C217.029 359 213 363.029 213 368C213 372.971 217.029 377 222 377Z" fill="url(#paint2_linear_0_402)" fill-opacity="0.2"/>
<circle cx="372" cy="313" r="11" fill="white"/>
<path fill-rule="evenodd" clip-rule="evenodd" d="M372.906 339.56C376.931 337.516 393 328.394 393 313C393 301.402 383.598 292 372 292C360.402 292 351 301.402 351 313C351 328.394 367.069 337.516 371.094 339.56C371.666 339.85 372.334 339.85 372.906 339.56ZM372 322C376.971 322 381 317.971 381 313C381 308.029 376.971 304 372 304C367.029 304 363 308.029 363 313C363 317.971 367.029 322 372 322Z" fill="#E3051A"/>
<path fill-rule="evenodd" clip-rule="evenodd" d="M372.906 339.56C376.931 337.516 393 328.394 393 313C393 301.402 383.598 292 372 292C360.402 292 351 301.402 351 313C351 328.394 367.069 337.516 371.094 339.56C371.666 339.85 372.334 339.85 372.906 339.56ZM372 322C376.971 322 381 317.971 381 313C381 308.029 376.971 304 372 304C367.029 304 363 308.029 363 313C363 317.971 367.029 322 372 322Z" fill="url(#paint3_linear_0_402)" fill-opacity="0.2"/>
<circle cx="505" cy="382" r="11" fill="white"/>
<path fill-rule="evenodd" clip-rule="evenodd" d="M505.906 408.56C509.931 406.516 526 397.394 526 382C526 370.402 516.598 361 505 361C493.402 361 484 370.402 484 382C484 397.394 500.069 406.516 504.094 408.56C504.666 408.85 505.334 408.85 505.906 408.56ZM505 391C509.971 391 514 386.971 514 382C514 377.029 509.971 373 505 373C500.029 373 496 377.029 496 382C496 386.971 500.029 391 505 391Z" fill="#E3051A"/>
<path fill-rule="evenodd" clip-rule="evenodd" d="M505.906 408.56C509.931 406.516 526 397.394 526 382C526 370.402 516.598 361 505 361C493.402 361 484 370.402 484 382C484 397.394 500.069 406.516 504.094 408.56C504.666 408.85 505.334 408.85 505.906 408.56ZM505 391C509.971 391 514 386.971 514 382C514 377.029 509.971 373 505 373C500.029 373 496 377.029 496 382C496 386.971 500.029 391 505 391Z" fill="url(#paint4_linear_0_402)" fill-opacity="0.2"/>
<circle cx="361" cy="457" r="9" fill="white"/>
<path fill-rule="evenodd" clip-rule="evenodd" d="M361.906 483.56C365.931 481.516 382 472.394 382 457C382 445.402 372.598 436 361 436C349.402 436 340 445.402 340 457C340 472.394 356.069 481.516 360.094 483.56C360.666 483.85 361.334 483.85 361.906 483.56ZM361 466C365.971 466 370 461.971 370 457C370 452.029 365.971 448 361 448C356.029 448 352 452.029 352 457C352 461.971 356.029 466 361 466Z" fill="#E3051A"/>
<path fill-rule="evenodd" clip-rule="evenodd" d="M361.906 483.56C365.931 481.516 382 472.394 382 457C382 445.402 372.598 436 361 436C349.402 436 340 445.402 340 457C340 472.394 356.069 481.516 360.094 483.56C360.666 483.85 361.334 483.85 361.906 483.56ZM361 466C365.971 466 370 461.971 370 457C370 452.029 365.971 448 361 448C356.029 448 352 452.029 352 457C352 461.971 356.029 466 361 466Z" fill="url(#paint5_linear_0_402)" fill-opacity="0.2"/>
<circle cx="139" cy="350" r="11" fill="white"/>
<path fill-rule="evenodd" clip-rule="evenodd" d="M139.906 376.56C143.931 374.516 160 365.394 160 350C160 338.402 150.598 329 139 329C127.402 329 118 338.402 118 350C118 365.394 134.069 374.516 138.094 376.56C138.666 376.85 139.334 376.85 139.906 376.56ZM139 359C143.971 359 148 354.971 148 350C148 345.029 143.971 341 139 341C134.029 341 130 345.029 130 350C130 354.971 134.029 359 139 359Z" fill="#E3051A"/>
<path fill-rule="evenodd" clip-rule="evenodd" d="M139.906 376.56C143.931 374.516 160 365.394 160 350C160 338.402 150.598 329 139 329C127.402 329 118 338.402 118 350C118 365.394 134.069 374.516 138.094 376.56C138.666 376.85 139.334 376.85 139.906 376.56ZM139 359C143.971 359 148 354.971 148 350C148 345.029 143.971 341 139 341C134.029 341 130 345.029 130 350C130 354.971 134.029 359 139 359Z" fill="url(#paint6_linear_0_402)" fill-opacity="0.2"/>
<circle cx="85" cy="369" r="11" fill="white"/>
<path fill-rule="evenodd" clip-rule="evenodd" d="M85.9056 395.56C89.9307 393.516 106 384.394 106 369C106 357.402 96.598 348 85 348C73.402 348 64 357.402 64 369C64 384.394 80.0693 393.516 84.0943 395.56C84.6658 395.85 85.3342 395.85 85.9056 395.56ZM85 378C89.9706 378 94 373.971 94 369C94 364.029 89.9706 360 85 360C80.0294 360 76 364.029 76 369C76 373.971 80.0294 378 85 378Z" fill="#E3051A"/>
<path fill-rule="evenodd" clip-rule="evenodd" d="M85.9056 395.56C89.9307 393.516 106 384.394 106 369C106 357.402 96.598 348 85 348C73.402 348 64 357.402 64 369C64 384.394 80.0693 393.516 84.0943 395.56C84.6658 395.85 85.3342 395.85 85.9056 395.56ZM85 378C89.9706 378 94 373.971 94 369C94 364.029 89.9706 360 85 360C80.0294 360 76 364.029 76 369C76 373.971 80.0294 378 85 378Z" fill="url(#paint7_linear_0_402)" fill-opacity="0.2"/>
</g>
<defs>
<linearGradient id="paint0_linear_0_402" x1="209" y1="251" x2="209" y2="298.778" gradientUnits="userSpaceOnUse">
<stop stop-color="white"/>
<stop offset="1" stop-color="white" stop-opacity="0"/>
</linearGradient>
<linearGradient id="paint1_linear_0_402" x1="288" y1="222" x2="288" y2="269.778" gradientUnits="userSpaceOnUse">
<stop stop-color="white"/>
<stop offset="1" stop-color="white" stop-opacity="0"/>
</linearGradient>
<linearGradient id="paint2_linear_0_402" x1="222" y1="347" x2="222" y2="394.778" gradientUnits="userSpaceOnUse">
<stop stop-color="white"/>
<stop offset="1" stop-color="white" stop-opacity="0"/>
</linearGradient>
<linearGradient id="paint3_linear_0_402" x1="372" y1="292" x2="372" y2="339.778" gradientUnits="userSpaceOnUse">
<stop stop-color="white"/>
<stop offset="1" stop-color="white" stop-opacity="0"/>
</linearGradient>
<linearGradient id="paint4_linear_0_402" x1="505" y1="361" x2="505" y2="408.778" gradientUnits="userSpaceOnUse">
<stop stop-color="white"/>
<stop offset="1" stop-color="white" stop-opacity="0"/>
</linearGradient>
<linearGradient id="paint5_linear_0_402" x1="361" y1="436" x2="361" y2="483.778" gradientUnits="userSpaceOnUse">
<stop stop-color="white"/>
<stop offset="1" stop-color="white" stop-opacity="0"/>
</linearGradient>
<linearGradient id="paint6_linear_0_402" x1="139" y1="329" x2="139" y2="376.778" gradientUnits="userSpaceOnUse">
<stop stop-color="white"/>
<stop offset="1" stop-color="white" stop-opacity="0"/>
</linearGradient>
<linearGradient id="paint7_linear_0_402" x1="85" y1="348" x2="85" y2="395.778" gradientUnits="userSpaceOnUse">
<stop stop-color="white"/>
<stop offset="1" stop-color="white" stop-opacity="0"/>
</linearGradient>
</defs>
</svg>
