<svg width="900" height="606" viewBox="0 0 900 606" fill="none" xmlns="http://www.w3.org/2000/svg">
<path d="M59.8692 516.777C37.5633 541.001 24.5849 567.13 23.1529 594.094C17.2689 704.887 208.551 787.837 450.394 779.368C692.237 770.899 893.059 674.218 898.943 563.425C903.62 475.369 783.753 404.901 612.944 383.938C613.42 380.367 613.756 376.777 613.948 373.169C616.956 316.533 583.778 266.635 527.989 232.179C531.528 219.397 533.727 206.231 534.44 192.811C540.324 82.0178 442.697 -4.21205 316.384 0.211288C190.071 4.63459 82.9047 98.036 77.0208 208.829C76.0612 226.898 77.8546 244.314 82.0769 260.79C33.6239 297.601 3.00232 344.47 0.337019 394.657C-2.15944 441.665 20.2717 484.03 59.8692 516.777Z" fill="#3262AC"/>
<path d="M814.743 196.346C897.427 328.491 875.826 482.832 766.494 541.075C657.163 599.319 501.503 539.411 418.818 407.265C336.133 275.12 357.735 120.78 467.066 62.5359C576.398 4.29217 732.058 64.201 814.743 196.346Z" fill="#3262AC"/>
</svg>
