<svg width="1394" height="664" viewBox="0 0 1394 664" fill="none" xmlns="http://www.w3.org/2000/svg">
<path opacity="0.3" fill-rule="evenodd" clip-rule="evenodd" d="M1.53043 938.975C4.50381 787.369 158.722 645.212 251.507 494.49C346.693 339.865 327.306 99.6109 551.284 45.934C809.433 -15.9318 893.254 313.594 1153.73 278.269C1484.97 233.348 1733.09 -229.905 2015.66 -152.656C2268.65 -83.4929 1901.14 249.489 1803.94 456.023C1755.48 558.987 1648.59 644.015 1592.66 746.139C1530.29 860.004 1547.97 975.328 1460.04 1083.91C1302.07 1278.97 1182.57 1545.17 888.989 1615.04C612.266 1680.91 402.497 1503.88 234.224 1375.69C85.0029 1262.01 -1.81052 1109.32 1.53043 938.975Z" stroke="white" stroke-dasharray="6 6"/>
</svg>
