<svg width="20" height="20" viewBox="0 0 20 20" fill="none" xmlns="http://www.w3.org/2000/svg">
<path fill-rule="evenodd" clip-rule="evenodd" d="M10 1.6665C6.31811 1.6665 3.33334 5.00199 3.33334 8.74984C3.33334 12.4683 5.46111 16.5102 8.7809 18.0619C9.5548 18.4236 10.4452 18.4236 11.2191 18.0619C14.5389 16.5102 16.6667 12.4683 16.6667 8.74984C16.6667 5.00199 13.6819 1.6665 10 1.6665ZM10 9.99984C10.9205 9.99984 11.6667 9.25364 11.6667 8.33317C11.6667 7.4127 10.9205 6.6665 10 6.6665C9.07954 6.6665 8.33334 7.4127 8.33334 8.33317C8.33334 9.25364 9.07954 9.99984 10 9.99984Z" fill="#76B72A"/>
</svg>
