<svg width="20" height="20" viewBox="0 0 20 20" fill="none" xmlns="http://www.w3.org/2000/svg">
<path fill-rule="evenodd" clip-rule="evenodd" d="M17.2917 5.83333C17.2917 6.17851 17.0119 6.45833 16.6667 6.45833L3.33335 6.45833C2.98818 6.45833 2.70835 6.17851 2.70835 5.83333C2.70835 5.48815 2.98818 5.20833 3.33335 5.20833L16.6667 5.20833C17.0119 5.20833 17.2917 5.48815 17.2917 5.83333Z" fill="white"/>
<path fill-rule="evenodd" clip-rule="evenodd" d="M17.2917 10C17.2917 10.3452 17.0119 10.625 16.6667 10.625L3.33335 10.625C2.98818 10.625 2.70835 10.3452 2.70835 10C2.70835 9.65482 2.98818 9.375 3.33335 9.375L16.6667 9.375C17.0119 9.375 17.2917 9.65482 17.2917 10Z" fill="white"/>
<path fill-rule="evenodd" clip-rule="evenodd" d="M17.2917 14.1667C17.2917 14.5118 17.0119 14.7917 16.6667 14.7917L3.33335 14.7917C2.98818 14.7917 2.70835 14.5118 2.70835 14.1667C2.70835 13.8215 2.98818 13.5417 3.33335 13.5417L16.6667 13.5417C17.0119 13.5417 17.2917 13.8215 17.2917 14.1667Z" fill="white"/>
</svg>
