<svg width="18" height="18" viewBox="0 0 18 18" fill="none" xmlns="http://www.w3.org/2000/svg">
<g clip-path="url(#clip0_0_351)">
<path d="M3.48889 7.57469C3.38999 7.09375 3.33961 6.60613 3.33961 6.11411C3.33961 5.10631 3.5507 4.11367 3.96068 3.16611C2.72691 3.06782 1.74438 3.17255 1.67895 3.17984C1.33765 3.21776 1.05589 3.46401 0.972646 3.79717C0.950555 3.88548 0.522945 5.6484 0.98035 7.57475L3.48889 7.57469Z" fill="#76B72A"/>
<path d="M14.511 7.57455H17.0195C17.4769 5.64826 17.0494 3.88534 17.0273 3.79703C16.944 3.46381 16.6623 3.21762 16.3209 3.17963C16.2524 3.17199 15.2077 3.06063 13.9181 3.1762C14.4113 4.1733 14.6603 5.15589 14.6603 6.11403C14.6602 6.60605 14.6099 7.09367 14.511 7.57455Z" fill="#76B72A"/>
<path d="M8.17837 7.57465V4.40363V0.565674C7.56506 1.01026 6.39136 1.9908 5.64985 3.43236C5.25516 4.19957 4.98303 5.09729 4.98303 6.11413C4.98303 6.60644 5.04846 7.09455 5.1774 7.57465H8.17837Z" fill="#76B72A"/>
<path d="M13.0169 6.11401C13.0169 5.18656 12.6771 4.27903 12.2092 3.4686C11.45 2.15344 10.3535 1.09453 9.82153 0.622559V4.40357V7.57459H12.8226C12.9515 7.09449 13.0169 6.60639 13.0169 6.11401Z" fill="#76B72A"/>
<path d="M18 9.21802H15.8898H13.9688H13.0518H11.635H11.625H8.99997H6.37671H6.36166H4.94821H4.03117H2.11H0C0.262862 12.1199 1.90257 14.6301 4.25954 16.0881C4.14133 16.2304 4.07018 16.4132 4.07018 16.6126C4.07018 17.0664 4.43808 17.4343 4.89181 17.4343H13.1081C13.5619 17.4343 13.9298 17.0664 13.9298 16.6126C13.9298 16.4132 13.8586 16.2304 13.7404 16.0881C16.0974 14.6301 17.7371 12.1199 18 9.21802Z" fill="#76B72A"/>
</g>
<defs>
<clipPath id="clip0_0_351">
<rect width="18" height="18" fill="white"/>
</clipPath>
</defs>
</svg>
