<svg width="18" height="18" viewBox="0 0 18 18" fill="none" xmlns="http://www.w3.org/2000/svg">
<path d="M17.1818 6.3855H12.0247H8.77866H0.818191C0.366328 6.3855 0 6.75183 0 7.20369C0 8.05426 0.118687 8.87762 0.340207 9.65819H1.19296H2.05724H15.9428H16.807H17.6598C17.8813 8.87765 18 8.05429 18 7.20369C18 6.75183 17.6337 6.3855 17.1818 6.3855Z" fill="#70CAF3"/>
<path d="M17.5682 2.20222C17.3404 1.81198 16.8394 1.68032 16.4491 1.90806L11.582 4.74901H14.8281L17.2741 3.32134C17.6643 3.09346 17.796 2.59249 17.5682 2.20222Z" fill="#70CAF3"/>
<path d="M17.0153 11.2944H16.0869H15.1197H2.88024H1.91299H0.984619C1.73724 12.7631 2.88197 13.9985 4.27943 14.863C4.16172 15.0047 4.09085 15.1867 4.09085 15.3854C4.09085 15.8372 4.45718 16.2035 4.90904 16.2035H8.99996H13.0909C13.5428 16.2035 13.9091 15.8372 13.9091 15.3854C13.9091 15.1867 13.8382 15.0048 13.7205 14.863C15.118 13.9985 16.2627 12.7631 17.0153 11.2944Z" fill="#70CAF3"/>
</svg>
