<svg width="50" height="50" viewBox="0 0 50 50" fill="none" xmlns="http://www.w3.org/2000/svg">
<path d="M20.8333 37.1527C20.8333 41.9469 17.1024 45.8333 12.5 45.8333C7.89762 45.8333 4.16666 41.9469 4.16666 37.1527C4.16666 34.1531 7.42901 30.1495 9.8713 27.5726C11.3171 26.0471 13.6829 26.0471 15.1287 27.5726C17.571 30.1495 20.8333 34.1531 20.8333 37.1527Z" fill="#3262AC"/>
<path opacity="0.7" d="M45.8333 37.1525C45.8333 41.9466 42.1024 45.833 37.5 45.833C32.8976 45.833 29.1667 41.9466 29.1667 37.1525C29.1667 34.1528 32.429 30.1493 34.8713 27.5724C36.3171 26.0468 38.6829 26.0468 40.1287 27.5724C42.571 30.1493 45.8333 34.1528 45.8333 37.1525Z" fill="#3262AC"/>
<path opacity="0.4" d="M33.3333 16.3192C33.3333 21.1134 29.6024 24.9998 25 24.9998C20.3976 24.9998 16.6667 21.1134 16.6667 16.3192C16.6667 13.3196 19.929 9.31602 22.3713 6.7391C23.8171 5.21359 26.1829 5.21359 27.6287 6.7391C30.071 9.31602 33.3333 13.3196 33.3333 16.3192Z" fill="#3262AC"/>
</svg>
