<svg width="50" height="50" viewBox="0 0 50 50" fill="none" xmlns="http://www.w3.org/2000/svg">
<path fill-rule="evenodd" clip-rule="evenodd" d="M25 45.8333C15.7953 45.8333 8.33337 38.2377 8.33337 28.8681C8.33337 19.5719 13.6528 8.72406 21.9523 4.84482C22.9196 4.39266 23.9598 4.16658 25 4.16658V45.8333Z" fill="#76B72A"/>
<path opacity="0.3" d="M28.0478 4.84499C27.0805 4.39283 26.0403 4.16675 25.0001 4.16675V18.7502L34.2327 9.5176C32.4353 7.54297 30.3569 5.92427 28.0478 4.84499Z" fill="#76B72A"/>
<path opacity="0.4" d="M25.0001 18.7502V30.2085L38.7797 16.4287C37.5878 13.8867 36.0547 11.5193 34.2327 9.51758L25.0001 18.7502Z" fill="#76B72A"/>
<path opacity="0.6" d="M25.0001 40.6252L41.273 24.3522C40.8148 21.6637 39.9664 18.9597 38.7797 16.4287L25.0001 30.2085V40.6252Z" fill="#76B72A"/>
<path opacity="0.7" d="M41.273 24.3521L25.0001 40.625V45.8332C34.2048 45.8332 41.6667 38.2376 41.6667 28.868C41.6667 27.3905 41.5324 25.8738 41.273 24.3521Z" fill="#76B72A"/>
</svg>
