<svg width="1497" height="608" viewBox="0 0 1497 608" fill="none" xmlns="http://www.w3.org/2000/svg">
<path opacity="0.8" fill-rule="evenodd" clip-rule="evenodd" d="M1.53043 1100.98C4.50381 949.369 158.722 807.212 251.507 656.49C346.693 501.865 327.306 261.611 551.284 207.934C809.433 146.068 893.254 475.594 1153.73 440.269C1484.97 395.348 1733.09 -67.9046 2015.66 9.3439C2268.65 78.5071 1901.14 411.489 1803.94 618.023C1755.48 720.987 1648.59 806.015 1592.66 908.139C1530.29 1022 1547.97 1137.33 1460.04 1245.91C1302.07 1440.97 1182.57 1707.17 888.989 1777.04C612.266 1842.91 402.497 1665.88 234.224 1537.69C85.0029 1424.01 -1.81052 1271.32 1.53043 1100.98Z" stroke="white" stroke-dasharray="6 6"/>
</svg>
