<svg width="390" height="540" viewBox="0 0 390 540" fill="none" xmlns="http://www.w3.org/2000/svg">
<g opacity="0.2">
<path d="M68.6062 284.541C44.2394 293.24 25.1643 306.784 13.2591 325.254C-35.6582 401.143 54.9972 531.445 215.744 616.292C376.49 701.14 546.456 708.402 595.373 632.513C634.252 572.198 584.966 477.512 482.4 398.593C484.163 396.255 485.843 393.85 487.436 391.379C512.442 352.586 511.17 304.954 488.906 259.716C496.41 252.034 503.198 243.579 509.124 234.387C558.041 158.498 529.636 61.0533 445.679 16.7382C361.723 -27.5769 254.007 -1.98116 205.09 73.9079C197.112 86.2845 191.19 99.2343 187.231 112.434C140.735 120.187 101.744 141.726 79.5853 176.102C58.8306 208.301 56.1785 246.588 68.6062 284.541Z" fill="#3262AC"/>
<path d="M690 342.138C690 466.338 613.137 567.021 518.321 567.021C423.506 567.021 346.643 466.338 346.643 342.138C346.643 217.939 423.506 117.255 518.321 117.255C613.137 117.255 690 217.939 690 342.138Z" fill="#3262AC"/>
</g>
</svg>
