<svg width="20" height="20" viewBox="0 0 20 20" fill="none" xmlns="http://www.w3.org/2000/svg">
<path d="M13.7732 1.6665H6.22686C5.22451 1.6665 4.72333 1.6665 4.32058 1.91542C3.91783 2.16433 3.69369 2.6126 3.24543 3.50912L2.07575 6.46591C1.80551 7.14905 1.56906 7.95421 2.02397 8.53107C2.32915 8.91807 2.80222 9.1665 3.33334 9.1665C4.25381 9.1665 5 8.42031 5 7.49984C5 8.42031 5.7462 9.1665 6.66667 9.1665C7.58714 9.1665 8.33334 8.42031 8.33334 7.49984C8.33334 8.42031 9.07953 9.1665 10 9.1665C10.9205 9.1665 11.6667 8.42031 11.6667 7.49984C11.6667 8.42031 12.4129 9.1665 13.3333 9.1665C14.2538 9.1665 15 8.42031 15 7.49984C15 8.42031 15.7462 9.1665 16.6667 9.1665C17.1978 9.1665 17.6709 8.91807 17.9761 8.53106C18.431 7.95421 18.1946 7.14905 17.9243 6.46591L16.7546 3.50912C16.3064 2.6126 16.0823 2.16433 15.6795 1.91542C15.2767 1.6665 14.7756 1.6665 13.7732 1.6665Z" fill="#76B72A"/>
<path fill-rule="evenodd" clip-rule="evenodd" d="M16.6667 17.7085H18.3333C18.6785 17.7085 18.9583 17.9883 18.9583 18.3335C18.9583 18.6787 18.6785 18.9585 18.3333 18.9585H1.66666C1.32148 18.9585 1.04166 18.6787 1.04166 18.3335C1.04166 17.9883 1.32148 17.7085 1.66666 17.7085H3.33332L3.33333 10.4168C3.95301 10.4168 4.52756 10.2236 4.99999 9.89404C5.47242 10.2236 6.04697 10.4168 6.66666 10.4168C7.28635 10.4168 7.8609 10.2236 8.33333 9.89404C8.80576 10.2236 9.3803 10.4168 9.99999 10.4168C10.6197 10.4168 11.1942 10.2236 11.6667 9.89404C12.1391 10.2236 12.7136 10.4168 13.3333 10.4168C13.953 10.4168 14.5276 10.2236 15 9.89404C15.4724 10.2236 16.047 10.4168 16.6667 10.4168L16.6667 17.7085ZM7.91666 17.7085H12.0833V15.4168C12.0833 14.638 12.0833 14.2486 11.9159 13.9585C11.8061 13.7685 11.6483 13.6107 11.4583 13.501C11.1683 13.3335 10.7788 13.3335 9.99999 13.3335C9.22114 13.3335 8.83172 13.3335 8.54166 13.501C8.35163 13.6107 8.19384 13.7685 8.08412 13.9585C7.91666 14.2486 7.91666 14.638 7.91666 15.4168V17.7085Z" fill="#76B72A"/>
</svg>
