<svg width="18" height="19" viewBox="0 0 18 19" fill="none" xmlns="http://www.w3.org/2000/svg">
<path d="M5.25 4.25C3.17893 4.25 1.5 5.92893 1.5 8C1.5 9.53774 2.42557 10.8593 3.75 11.438V13.4375H14.25L14.25 11.438C15.5744 10.8593 16.5 9.53774 16.5 8C16.5 5.92893 14.8211 4.25 12.75 4.25C12.5621 4.25 12.3775 4.26382 12.197 4.29049C11.7453 2.95854 10.4846 2 9 2C7.51542 2 6.25471 2.95854 5.80302 4.29049C5.62255 4.26382 5.43789 4.25 5.25 4.25Z" fill="#2896D5"/>
<path d="M14.2487 14.5625H3.75127C3.75891 15.6102 3.81257 16.1839 4.18934 16.5607C4.62868 17 5.33579 17 6.75 17H11.25C12.6642 17 13.3713 17 13.8107 16.5607C14.1874 16.1839 14.2411 15.6102 14.2487 14.5625Z" fill="#2896D5"/>
</svg>
