<svg width="18" height="19" viewBox="0 0 18 19" fill="none" xmlns="http://www.w3.org/2000/svg">
<path d="M13.1833 3.82364L11.6833 3.03648C10.3666 2.34549 9.7082 2 9 2C8.2918 2 7.63344 2.34549 6.31672 3.03647L4.81672 3.82364C3.48641 4.52175 2.70443 4.93212 2.21977 5.48099L9 8.87111L15.7802 5.48099C15.2956 4.93212 14.5136 4.52175 13.1833 3.82364Z" fill="#76B72A"/>
<path d="M16.3113 6.47326L9.5625 9.84764V16.928C10.1009 16.7939 10.7136 16.4724 11.6833 15.9635L13.1833 15.1764C14.797 14.3295 15.6039 13.9061 16.052 13.1452C16.5 12.3843 16.5 11.4375 16.5 9.54387V9.45613C16.5 8.03664 16.5 7.14918 16.3113 6.47326Z" fill="#76B72A"/>
<path d="M8.4375 16.928V9.84764L1.68873 6.47326C1.5 7.14918 1.5 8.03664 1.5 9.45613V9.54387C1.5 11.4375 1.5 12.3843 1.94805 13.1452C2.3961 13.9061 3.20297 14.3295 4.81672 15.1764L6.31672 15.9635C7.28643 16.4724 7.89906 16.7939 8.4375 16.928Z" fill="#76B72A"/>
</svg>
