<svg width="284" height="284" viewBox="0 0 284 284" fill="none" xmlns="http://www.w3.org/2000/svg">
<path d="M28.2379 119.173C18.2087 122.754 10.3575 128.329 5.45737 135.931C-14.6767 167.166 22.6365 220.798 88.7989 255.72C154.961 290.643 224.918 293.632 245.052 262.397C261.054 237.571 240.769 198.599 198.553 166.116C199.279 165.154 199.97 164.164 200.626 163.147C210.918 147.18 210.394 127.575 201.231 108.955C204.32 105.794 207.114 102.314 209.552 98.5303C229.686 67.2948 217.995 27.1872 183.439 8.94732C148.883 -9.29251 104.548 1.24254 84.4137 32.478C81.1301 37.5722 78.6929 42.9022 77.0634 48.335C57.9258 51.5262 41.8771 60.3917 32.7568 74.5406C24.2143 87.7933 23.1227 103.552 28.2379 119.173Z" fill="#E3F6FF"/>
<path d="M284 142.88C284 194 252.364 235.441 213.338 235.441C174.313 235.441 142.676 194 142.676 142.88C142.676 91.7604 174.313 50.3196 213.338 50.3196C252.364 50.3196 284 91.7604 284 142.88Z" fill="#E3F6FF"/>
</svg>
