<svg width="16" height="15" viewBox="0 0 16 15" fill="none" xmlns="http://www.w3.org/2000/svg">
<path d="M15.5 7.5C15.5 11.6421 12.1421 15 8 15C3.85786 15 0.5 11.6421 0.5 7.5C0.5 3.35786 3.85786 0 8 0C12.1421 0 15.5 3.35786 15.5 7.5Z" fill="#3262AC"/>
<path fill-rule="evenodd" clip-rule="evenodd" d="M8 3.9375C8.31066 3.9375 8.5625 4.18934 8.5625 4.5V7.267L10.2727 8.97725C10.4924 9.19692 10.4924 9.55308 10.2727 9.77275C10.0531 9.99242 9.69692 9.99242 9.47725 9.77275L7.60225 7.89775C7.49676 7.79226 7.4375 7.64918 7.4375 7.5V4.5C7.4375 4.18934 7.68934 3.9375 8 3.9375Z" fill="white"/>
</svg>
