<svg width="18" height="19" viewBox="0 0 18 19" fill="none" xmlns="http://www.w3.org/2000/svg">
<path d="M17.0765 9.01993C16.7599 8.19612 16.4131 7.28632 15.8563 6.58944C15.4354 6.06265 14.6461 5.60643 13.9474 5.71312C13.9383 5.71451 13.88 5.72726 13.7785 5.74994C13.8038 5.92477 13.8167 6.10204 13.8167 6.2812C13.8167 6.77853 13.719 7.2616 13.5264 7.71696C13.3406 8.15624 13.0749 8.55047 12.7366 8.8888C12.3983 9.22708 12.004 9.49284 11.5648 9.67862C11.1094 9.87122 10.6263 9.96887 10.129 9.96887C9.63167 9.96887 9.14863 9.87122 8.69326 9.67862C8.25399 9.49282 7.85975 9.22708 7.52142 8.8888C7.18314 8.55049 6.91738 8.15624 6.7316 7.71696C6.68592 7.60896 6.64577 7.49935 6.61081 7.38841C3.71298 8.05314 1.02615 8.67056 0.86925 8.70709C0.730953 8.73928 0.562606 8.7585 0.438482 8.82455C0.333779 8.88025 0.258728 8.96932 0.258728 9.12757V16.361C0.258728 16.6461 0.560086 16.9087 0.931416 16.9473L3.62033 17.227L15.7149 18.4858C16.827 18.6017 17.73 18.002 17.73 17.1461C17.73 16.6057 17.3703 16.0941 16.8254 15.7595C17.3703 15.5393 17.7301 15.1014 17.7301 14.5619C17.7301 14.0224 17.3704 13.5108 16.8264 13.1772C18.434 12.5224 17.5258 10.1891 17.0765 9.01993ZM13.5356 17.0831L1.67974 15.8486V14.6635L13.5356 15.8971C14.6478 16.0131 15.5506 16.3719 15.5506 16.6991C15.5506 17.0264 14.6478 17.1991 13.5356 17.0831ZM13.5356 14.7211L1.67974 13.4866V12.3006L13.5356 13.536C14.6478 13.652 15.5506 14.0107 15.5506 14.338C15.5506 14.6653 14.6478 14.8371 13.5356 14.7211ZM13.5356 12.3591L1.67974 11.1254V9.93945L13.5356 11.1731C14.6478 11.289 15.5506 11.6488 15.5506 11.976C15.5506 12.3042 14.6478 12.475 13.5356 12.3591Z" fill="#FD8900"/>
<path d="M7.57819 6.2811C7.57819 6.57986 7.62974 6.86656 7.7241 7.133C8.07474 8.12283 9.01898 8.83193 10.129 8.83193C11.5378 8.83193 12.6798 7.6899 12.6798 6.28112C12.6798 6.18693 12.6745 6.094 12.6646 6.00244C12.5257 4.72478 11.4436 3.73031 10.129 3.73031C9.99472 3.73031 9.86292 3.74075 9.73427 3.76074C9.64697 3.58214 9.55023 3.4076 9.44596 3.23742C9.34086 3.06587 9.2282 2.89875 9.11031 2.73624C8.96582 2.53706 8.81348 2.34481 8.65726 2.16001C8.36678 1.8164 8.05147 1.49113 7.70491 1.20359C7.40143 0.951757 7.07873 0.709174 6.71612 0.548708C6.51105 0.45795 6.27593 0.486864 6.15323 0.696308C6.04957 0.873277 6.09565 1.16842 6.30083 1.25922C6.47102 1.33453 6.63273 1.42838 6.7867 1.53272C6.83119 1.56287 6.87532 1.59352 6.91872 1.6252C6.93455 1.63676 6.99125 1.68 7.00619 1.69101C7.07195 1.74307 7.13696 1.79607 7.20045 1.85092C7.36793 1.99564 7.52898 2.14787 7.68276 2.30708C7.84466 2.47471 8.00032 2.64847 8.14784 2.82891C8.18975 2.88018 8.23134 2.93174 8.27208 2.98398C8.27217 2.98409 8.27225 2.98418 8.27236 2.9843C8.27382 2.98625 8.27543 2.98837 8.27723 2.99072C8.29438 3.01338 8.31156 3.03602 8.32852 3.05884C8.32913 3.05969 8.32973 3.06054 8.33038 3.06138C8.39732 3.1516 8.46293 3.24283 8.52607 3.33579C8.57018 3.40072 8.61336 3.4663 8.65565 3.53246C8.73811 3.66153 8.81678 3.79303 8.89001 3.92755C8.90733 3.95937 8.92434 3.99133 8.94118 4.02339C8.13073 4.45065 7.57819 5.30128 7.57819 6.2811Z" fill="#FD8900"/>
</svg>
