<svg width="284" height="281" viewBox="0 0 284 281" fill="none" xmlns="http://www.w3.org/2000/svg">
<path d="M-14.3986 79.0292C-26.688 83.4168 -36.3085 90.2478 -42.3128 99.5628C-66.9841 137.837 -21.2623 203.555 59.8099 246.347C140.882 289.14 226.604 292.803 251.275 254.528C270.883 224.109 246.027 176.354 194.297 136.551C195.187 135.372 196.034 134.159 196.837 132.913C209.449 113.347 208.807 89.3244 197.579 66.5088C201.363 62.6345 204.787 58.3705 207.775 53.7343C232.447 15.4598 218.121 -33.6862 175.777 -56.0364C133.434 -78.3866 79.1078 -65.4775 54.4365 -27.203C50.4129 -20.9609 47.4265 -14.4296 45.4298 -7.77258C21.9796 -3.86224 2.31419 7.0011 -8.86134 24.3385C-19.3289 40.5777 -20.6665 59.8876 -14.3986 79.0292Z" fill="#71D2FF"/>
<path d="M299 108.078C299 170.718 260.234 221.498 212.414 221.498C164.594 221.498 125.829 170.718 125.829 108.078C125.829 45.4388 164.594 -5.34074 212.414 -5.34074C260.234 -5.34074 299 45.4388 299 108.078Z" fill="#71D2FF"/>
</svg>
